<svg width="83" height="72" viewBox="0 0 83 72" fill="none" xmlns="http://www.w3.org/2000/svg">
<g clip-path="url(#clip0_2392_101354)">
<path d="M36 65C52.0163 65 65 52.0163 65 36C65 19.9837 52.0163 7 36 7C19.9837 7 7 19.9837 7 36C7 52.0163 19.9837 65 36 65Z" fill="url(#paint0_linear_2392_101354)"/>
<path d="M28.4004 23.25C24.2583 23.25 20.9004 26.6079 20.9004 30.75V33.75V42C20.9023 43 21.9023 46.5 24.9007 47.9L54.4023 73C58.5445 73 65.4004 59.8921 65.4004 55.75V48.25L68.4023 45.5L50.0435 27.2724C50.0435 27.1484 48.0265 23.25 43.4004 23.25H28.4004Z" fill="url(#paint1_linear_2392_101354)"/>
</g>
<path d="M36 72C55.8823 72 72 55.8823 72 36C72 16.1177 55.8823 0 36 0C16.1177 0 0 16.1177 0 36C0 55.8823 16.1177 72 36 72Z" fill="#DA2128" fill-opacity="0.4"/>
<rect x="47" width="36" height="26" rx="13" fill="#B31A20"/>
<path d="M54.9926 12.022C54.9833 11.9567 54.9786 11.896 54.9786 11.84C54.9786 11.7747 54.9786 11.714 54.9786 11.658C54.9786 11.266 55.0486 10.8927 55.1886 10.538C55.3286 10.1833 55.5293 9.87067 55.7906 9.6C56.0613 9.32933 56.3926 9.11467 56.7846 8.956C57.1766 8.79733 57.62 8.718 58.1146 8.718C58.6 8.718 59.034 8.79267 59.4166 8.942C59.7993 9.09133 60.1213 9.292 60.3826 9.544C60.644 9.796 60.84 10.0947 60.9706 10.44C61.1106 10.776 61.1806 11.1307 61.1806 11.504C61.1806 12.1013 61.0266 12.638 60.7186 13.114C60.4106 13.5807 59.9953 13.9773 59.4726 14.304L57.6806 15.452C57.4193 15.62 57.186 15.8067 56.9806 16.012C56.7753 16.208 56.64 16.446 56.5746 16.726H61.2366V18H54.8806C54.89 17.6267 54.932 17.2767 55.0066 16.95C55.0906 16.6233 55.2166 16.3107 55.3846 16.012C55.562 15.7133 55.786 15.4333 56.0566 15.172C56.3273 14.9013 56.654 14.64 57.0366 14.388L58.5486 13.408C58.978 13.1373 59.2906 12.8433 59.4866 12.526C59.692 12.2087 59.7946 11.8727 59.7946 11.518C59.7946 11.3127 59.7573 11.1167 59.6826 10.93C59.6173 10.734 59.5146 10.5613 59.3746 10.412C59.2346 10.2627 59.0573 10.146 58.8426 10.062C58.628 9.96867 58.376 9.922 58.0866 9.922C57.788 9.922 57.5266 9.97333 57.3026 10.076C57.088 10.1693 56.906 10.3 56.7566 10.468C56.6166 10.636 56.5093 10.832 56.4346 11.056C56.3693 11.28 56.3366 11.5227 56.3366 11.784C56.3366 11.8493 56.3366 11.9147 56.3366 11.98C56.346 12.0453 56.3553 12.1153 56.3646 12.19L54.9926 12.022ZM63.0748 18H61.8008L66.6028 8.074H67.8768L63.0748 18ZM70.3491 12.652L73.0231 10.188H68.6831V8.928H74.8431V10.16L72.2531 12.554C72.5891 12.554 72.9204 12.61 73.2471 12.722C73.5831 12.834 73.8818 13.0067 74.1431 13.24C74.4138 13.464 74.6331 13.7487 74.8011 14.094C74.9691 14.4393 75.0531 14.8453 75.0531 15.312C75.0531 15.6947 74.9784 16.0633 74.8291 16.418C74.6891 16.7633 74.4791 17.0713 74.1991 17.342C73.9191 17.6127 73.5738 17.8273 73.1631 17.986C72.7618 18.1447 72.2951 18.224 71.7631 18.224C71.2404 18.224 70.7738 18.1447 70.3631 17.986C69.9524 17.8273 69.6024 17.6173 69.3131 17.356C69.0331 17.0853 68.8138 16.782 68.6551 16.446C68.4964 16.1007 68.4078 15.7413 68.3891 15.368L69.7331 15.06C69.7424 15.3587 69.8031 15.6293 69.9151 15.872C70.0271 16.1147 70.1718 16.32 70.3491 16.488C70.5358 16.656 70.7458 16.7867 70.9791 16.88C71.2218 16.9733 71.4784 17.02 71.7491 17.02C72.0571 17.02 72.3324 16.978 72.5751 16.894C72.8178 16.8007 73.0184 16.6793 73.1771 16.53C73.3358 16.3713 73.4571 16.1893 73.5411 15.984C73.6251 15.7787 73.6671 15.564 73.6671 15.34C73.6671 15.0413 73.6111 14.7847 73.4991 14.57C73.3964 14.3553 73.2564 14.1827 73.0791 14.052C72.9018 13.912 72.7011 13.8093 72.4771 13.744C72.2624 13.6787 72.0431 13.646 71.8191 13.646C71.5484 13.646 71.2824 13.6927 71.0211 13.786L70.3491 12.652Z" fill="white"/>
<path fill-rule="evenodd" clip-rule="evenodd" d="M28.5 23.25C24.3579 23.25 21 26.6079 21 30.75H51C51 26.6079 47.6421 23.25 43.5 23.25H28.5ZM21 41.25V33.75H51V41.25C51 45.3921 47.6421 48.75 43.5 48.75H28.5C24.3579 48.75 21 45.3921 21 41.25ZM28.5 39.75C27.6716 39.75 27 40.4216 27 41.25C27 42.0784 27.6716 42.75 28.5 42.75H33C33.8284 42.75 34.5 42.0784 34.5 41.25C34.5 40.4216 33.8284 39.75 33 39.75H28.5Z" fill="white"/>
<defs>
<linearGradient id="paint0_linear_2392_101354" x1="15.9231" y1="57.1923" x2="53.2885" y2="16.4808" gradientUnits="userSpaceOnUse">
<stop stop-color="#F82E2E"/>
<stop offset="1" stop-color="#DA2128"/>
</linearGradient>
<linearGradient id="paint1_linear_2392_101354" x1="25.0463" y1="33.4264" x2="47.2436" y2="58.9453" gradientUnits="userSpaceOnUse">
<stop stop-color="#030303" stop-opacity="0.8"/>
<stop offset="1" stop-color="#693900" stop-opacity="0.2"/>
</linearGradient>
<clipPath id="clip0_2392_101354">
<rect x="7" y="7" width="58" height="58" rx="29" fill="white"/>
</clipPath>
</defs>
</svg>
