<svg version="1.1" xmlns="http://www.w3.org/2000/svg" xmlns:xlink="http://www.w3.org/1999/xlink" viewBox="0 0 172 172"><g fill="none" fill-rule="nonzero" stroke="none" stroke-width="1" stroke-linecap="butt" stroke-linejoin="miter" stroke-miterlimit="10" stroke-dasharray="" stroke-dashoffset="0" font-family="none" font-weight="none" font-size="none" text-anchor="none" style="mix-blend-mode: normal"><path d="M0,172v-172h172v172z" fill="none"></path><g fill="#ee9b31"><path d="M55.48568,8.68958c-1.05991,0.02437 -2.01984,0.63167 -2.49585,1.57899c-0.476,0.94732 -0.39036,2.08 0.22267,2.94497l8.47683,12.25052c-8.13902,6.23724 -13.83962,15.50298 -15.36354,26.13594h79.34844c-1.52392,-10.63295 -7.22453,-19.8987 -15.36354,-26.13594l8.47683,-12.25052c0.62196,-0.8781 0.69985,-2.03053 0.2017,-2.98433c-0.49815,-0.9538 -1.48844,-1.54835 -2.56446,-1.53963c-0.94443,0.0087 -1.82399,0.48198 -2.35157,1.26536l-8.54401,12.3625c-5.77919,-3.23846 -12.42675,-5.11745 -19.52917,-5.11745c-7.10242,0 -13.74998,1.87899 -19.52917,5.11745l-8.54401,-12.3625c-0.54518,-0.80993 -1.46506,-1.28675 -2.44115,-1.26536zM68.8,28.66667c3.1648,0 5.73333,2.56853 5.73333,5.73333c0,3.1648 -2.56853,5.73333 -5.73333,5.73333c-3.1648,0 -5.73333,-2.56853 -5.73333,-5.73333c0,-3.1648 2.56853,-5.73333 5.73333,-5.73333zM103.2,28.66667c3.1648,0 5.73333,2.56853 5.73333,5.73333c0,3.1648 -2.56853,5.73333 -5.73333,5.73333c-3.1648,0 -5.73333,-2.56853 -5.73333,-5.73333c0,-3.1648 2.56853,-5.73333 5.73333,-5.73333zM28.66667,63.06667c-3.1648,0 -5.73333,2.56853 -5.73333,5.73333v45.86667c0,3.1648 2.56853,5.73333 5.73333,5.73333c3.1648,0 5.73333,-2.56853 5.73333,-5.73333v-45.86667c0,-3.1648 -2.56853,-5.73333 -5.73333,-5.73333zM45.86667,63.06667v57.33333c0,6.33533 5.13133,11.46667 11.46667,11.46667v20.06667c0,4.7472 3.8528,8.6 8.6,8.6c4.7472,0 8.6,-3.8528 8.6,-8.6v-20.06667h22.93333v20.06667c0,4.7472 3.8528,8.6 8.6,8.6c4.7472,0 8.6,-3.8528 8.6,-8.6v-20.06667c6.33533,0 11.46667,-5.13133 11.46667,-11.46667v-57.33333zM143.33333,63.06667c-3.1648,0 -5.73333,2.56853 -5.73333,5.73333v45.86667c0,3.1648 2.56853,5.73333 5.73333,5.73333c3.1648,0 5.73333,-2.56853 5.73333,-5.73333v-45.86667c0,-3.1648 -2.56853,-5.73333 -5.73333,-5.73333z"></path></g></g></svg>