<svg width="38" height="37" viewBox="0 0 38 37" fill="none" xmlns="http://www.w3.org/2000/svg">
<path fill-rule="evenodd" clip-rule="evenodd" d="M19.001 3.04785C13.887 3.04785 9.59081 6.89312 9.02606 11.9758L8.64236 15.4291L8.63314 15.5115C8.46121 17.0097 7.97353 18.4545 7.20229 19.7505L7.1597 19.8216L6.27889 21.2896L6.24209 21.3509C5.87406 21.9642 5.54062 22.5198 5.31852 22.9914C5.09282 23.4706 4.85149 24.12 4.96766 24.8562C5.08247 25.5839 5.45699 26.2453 6.02191 26.7182C6.59344 27.1966 7.2744 27.3237 7.80146 27.3767C8.32012 27.4289 8.96813 27.4289 9.68338 27.4288L9.75486 27.4288H13.1314C13.4496 29.0069 14.1028 30.4719 15.0678 31.5826C16.0893 32.7584 17.4615 33.524 19.001 33.524C20.5405 33.524 21.9127 32.7584 22.9342 31.5826C23.8992 30.4719 24.5523 29.0069 24.8705 27.4288H28.2471L28.3186 27.4288C29.0338 27.4289 29.6818 27.4289 30.2005 27.3767C30.7276 27.3237 31.4085 27.1966 31.9801 26.7182C32.545 26.2453 32.9195 25.5839 33.0343 24.8562C33.1505 24.12 32.9091 23.4706 32.6834 22.9914C32.4613 22.5198 32.1279 21.9642 31.7598 21.3509L31.7231 21.2896L30.8423 19.8216L30.7997 19.7505C30.0284 18.4545 29.5407 17.0097 29.3688 15.5115L29.3596 15.4291L28.9759 11.9758C28.4112 6.89312 24.115 3.04785 19.001 3.04785ZM21.7368 27.4288H16.2652C16.5207 28.3218 16.9126 29.0592 17.3684 29.5838C17.9436 30.2459 18.5278 30.4764 19.001 30.4764C19.4741 30.4764 20.0583 30.2459 20.6336 29.5838C21.0894 29.0592 21.4813 28.3218 21.7368 27.4288ZM12.055 12.3124C12.4483 8.77308 15.4399 6.09547 19.001 6.09547C22.5621 6.09547 25.5537 8.77309 25.9469 12.3124L26.3306 15.7657L26.3411 15.8589C26.5621 17.7852 27.1891 19.6428 28.1807 21.309L28.2289 21.3895L29.1098 22.8576C29.5265 23.5522 29.7777 23.9744 29.9263 24.2899C29.9344 24.3072 29.9419 24.3234 29.9487 24.3386C29.9322 24.3406 29.9144 24.3425 29.8954 24.3444C29.5484 24.3793 29.0571 24.3812 28.2471 24.3812H9.75486C8.94481 24.3812 8.45357 24.3793 8.10653 24.3444C8.08755 24.3425 8.06981 24.3406 8.05325 24.3386C8.06009 24.3234 8.06754 24.3072 8.07567 24.2899C8.22428 23.9744 8.47543 23.5522 8.8922 22.8576L9.77301 21.3895L9.82122 21.309C10.8128 19.6428 11.4398 17.7852 11.6609 15.8589L11.6713 15.7657L12.055 12.3124Z" fill="#DA2128"/>
</svg>
