<svg width="28" height="28" viewBox="0 0 28 28" fill="none" xmlns="http://www.w3.org/2000/svg">
<path fill-rule="evenodd" clip-rule="evenodd" d="M2.92727 2.09961H25.0727C26.6894 2.09961 28 3.41019 28 5.02688V18.8996C28 20.5163 26.6894 21.8269 25.0727 21.8269H18.4545V24.3723H19.7273C20.0787 24.3723 20.3636 24.6572 20.3636 25.0087C20.3636 25.3602 20.0787 25.6451 19.7273 25.6451H8.36818C8.01673 25.6451 7.73182 25.3602 7.73182 25.0087C7.73182 24.6572 8.01673 24.3723 8.36818 24.3723H9.54545V21.8269H2.92727C1.31058 21.8269 0 20.5163 0 18.8996V5.02688C0 3.41019 1.31058 2.09961 2.92727 2.09961ZM17.1819 24.3724V21.8269H10.8183V24.3724H17.1819ZM1.27267 5.02683C1.27267 4.11305 2.01344 3.37228 2.92722 3.37228H25.0727C25.5115 3.37228 25.9323 3.5466 26.2426 3.85689C26.5529 4.16718 26.7272 4.58802 26.7272 5.02683V17.3723H26.6636H1.27267V5.02683ZM2.92722 20.554H25.0727C25.9815 20.5541 26.7202 19.821 26.7272 18.9122V18.645H26.6636H1.27267V18.8995C1.27267 19.3383 1.44699 19.7592 1.75728 20.0694C2.06757 20.3797 2.48841 20.554 2.92722 20.554Z" fill="#EE9B31"/>
<path d="M1.27246 5.02662C1.27246 4.11284 2.01323 3.37207 2.92701 3.37207H25.0725C25.5113 3.37207 25.9321 3.54639 26.2424 3.85668C26.5527 4.16696 26.727 4.5878 26.727 5.02662V17.3721H26.6634H1.27246V5.02662Z" fill="#FFE0B8"/>
<path d="M25.0725 20.5546H2.92701C2.48819 20.5546 2.06735 20.3803 1.75707 20.07C1.44678 19.7597 1.27246 19.3389 1.27246 18.9001V18.6455H26.6634H26.727V18.9128C26.72 19.8216 25.9813 20.5546 25.0725 20.5546Z" fill="#FFE0B8"/>
<path d="M18.9351 9.2547L13.3048 5.62701C13.09 5.48863 12.8399 5.41504 12.5844 5.41504C11.8499 5.41504 11.2544 6.0105 11.2544 6.74504L11.2544 14.0004C11.2544 14.2559 11.328 14.506 11.4664 14.7208C11.8642 15.3382 12.6873 15.5163 13.3048 15.1185L18.9351 11.4908C19.0945 11.3881 19.2301 11.2525 19.3328 11.0931C19.7306 10.4756 19.5526 9.65254 18.9351 9.2547Z" fill="#EE9B31"/>
</svg>
