<svg width="24" height="24" viewBox="0 0 24 24" fill="none" xmlns="http://www.w3.org/2000/svg">
<path fill-rule="evenodd" clip-rule="evenodd" d="M4.98328 12.0008C4.98328 13.8386 6.47278 15.3281 8.31061 15.3281C9.73794 15.3281 10.9552 14.4297 11.4277 13.1675H13.3794V14.1616C13.3794 14.8059 13.9017 15.3283 14.546 15.3283C15.1904 15.3283 15.7127 14.8059 15.7127 14.1616V13.1675H16.679V14.1615C16.679 14.8058 17.2013 15.3281 17.8457 15.3281C18.49 15.3281 19.0123 14.8058 19.0123 14.1615V12.0008C19.0123 11.3565 18.49 10.8341 17.8457 10.8341H11.4276C10.9555 9.5733 9.74044 8.67487 8.31525 8.67347C6.49997 8.67347 4.98328 10.1836 4.98328 12.0008ZM7.31661 12.0008C7.31661 11.4567 7.7705 11.0068 8.31343 11.0068C8.85993 11.0076 9.30461 11.4519 9.30461 12.0008C9.30461 12.55 8.85978 12.9948 8.31061 12.9948C7.76144 12.9948 7.31661 12.55 7.31661 12.0008Z" fill="#899296"/>
<path fill-rule="evenodd" clip-rule="evenodd" d="M0.333984 16.9203C0.333984 18.9283 1.05074 20.6451 2.34915 21.8541C3.63816 23.0544 5.40578 23.6673 7.36476 23.6673H16.6365C18.5955 23.6673 20.3631 23.0544 21.6522 21.8541C22.9506 20.6451 23.6673 18.9283 23.6673 16.9203V7.07984C23.6673 5.07669 22.95 3.36078 21.6527 2.15134C20.3644 0.950349 18.597 0.333984 16.6365 0.333984H7.36476C5.40595 0.333984 3.63834 0.946544 2.34927 2.1465C1.05076 3.35524 0.333984 5.07186 0.333984 7.07984V16.9203ZM7.36476 21.334C5.88768 21.334 4.72325 20.8765 3.93922 20.1465C3.16459 19.4252 2.66732 18.3518 2.66732 16.9203V7.07984C2.66732 5.64836 3.16457 4.57538 3.9391 3.85439C4.72307 3.12462 5.88752 2.66732 7.36476 2.66732H16.6365C18.1122 2.66732 19.2768 3.12649 20.0616 3.85807C20.8373 4.58119 21.334 5.65488 21.334 7.07984V16.9203C21.334 18.3518 20.8367 19.4252 20.0621 20.1465C19.2781 20.8765 18.1136 21.334 16.6365 21.334H7.36476Z" fill="#899296"/>
</svg>
