<svg width="72" height="72" viewBox="0 0 72 72" fill="none" xmlns="http://www.w3.org/2000/svg">
<path d="M36 72C55.8823 72 72 55.8823 72 36C72 16.1177 55.8823 0 36 0C16.1177 0 0 16.1177 0 36C0 55.8823 16.1177 72 36 72Z" fill="url(#paint0_linear_2684_105919)" fill-opacity="0.4"/>
<path d="M35.9992 64.8002C51.905 64.8002 64.7992 51.906 64.7992 36.0002C64.7992 20.0944 51.905 7.2002 35.9992 7.2002C20.0934 7.2002 7.19922 20.0944 7.19922 36.0002C7.19922 51.906 20.0934 64.8002 35.9992 64.8002Z" fill="url(#paint1_linear_2684_105919)"/>
<path fill-rule="evenodd" clip-rule="evenodd" d="M36.0007 17.6665C46.634 17.6665 54.334 26.2832 54.334 35.9998C54.334 39.1165 53.4173 42.2332 51.9507 45.1665C51.584 45.7165 51.584 46.2665 51.7673 46.8165L53.0507 50.8498C53.4173 51.7665 52.5007 52.4998 51.584 52.3165L47.9173 51.2165C47.0007 50.8498 46.084 51.3998 45.1673 51.9498C42.4173 53.5998 38.934 54.3332 36.0007 54.3332C26.834 54.3332 17.6673 47.3665 17.6673 35.9998C17.6673 26.2832 25.5507 17.6665 36.0007 17.6665ZM44.434 38.3832C45.7173 38.3832 46.8173 37.2832 46.8173 35.9998C46.8173 34.7165 45.7173 33.6165 44.434 33.6165C43.1507 33.6165 42.0507 34.7165 42.0507 35.9998C42.0507 37.2832 43.1507 38.3832 44.434 38.3832ZM36.0007 38.3832C37.284 38.3832 38.384 37.2832 38.384 35.9998C38.384 34.7165 37.284 33.6165 36.0007 33.6165C34.7173 33.6165 33.6173 34.7165 33.6173 35.9998C33.6173 37.2832 34.7173 38.3832 36.0007 38.3832ZM27.5673 38.3832C28.8506 38.3832 29.9506 37.2832 29.9506 35.9998C29.9506 34.7165 28.8506 33.6165 27.5673 33.6165C26.284 33.6165 25.184 34.7165 25.184 35.9998C25.184 37.2832 26.284 38.3832 27.5673 38.3832Z" fill="white"/>
<defs>
<linearGradient id="paint0_linear_2684_105919" x1="11.0769" y1="62.3077" x2="57.4615" y2="11.7692" gradientUnits="userSpaceOnUse">
<stop stop-color="#F8BF2E"/>
<stop offset="1" stop-color="#FFDE45"/>
</linearGradient>
<linearGradient id="paint1_linear_2684_105919" x1="16.0608" y1="57.0463" x2="53.1684" y2="16.6156" gradientUnits="userSpaceOnUse">
<stop stop-color="#F8BF2E"/>
<stop offset="1" stop-color="#FFDE45"/>
</linearGradient>
</defs>
</svg>
