<svg width="24" height="24" viewBox="0 0 24 24" fill="none" xmlns="http://www.w3.org/2000/svg">
<path fill-rule="evenodd" clip-rule="evenodd" d="M2.16565 22.4288L4.52232 21.7277C5.16398 21.5174 5.66565 21.7862 6.26065 22.1484C7.96398 23.1532 10.0873 23.6673 12.0007 23.6673C17.7873 23.6673 23.6673 19.1923 23.6673 11.9831C23.6673 5.76713 18.6507 0.333984 12.024 0.333984C5.24565 0.333984 0.333984 5.87229 0.333984 12.0182C0.333984 13.9811 0.905651 16.0025 1.90898 17.8486C2.09565 18.1524 2.11898 18.538 1.99065 18.9002L1.20898 21.5174C1.03398 22.1484 1.57065 22.6157 2.16565 22.4288ZM4.28075 19.3851C5.75762 19.1048 6.90424 19.8067 7.42029 20.1225C7.43386 20.1308 7.44699 20.1389 7.45968 20.1466C8.76555 20.913 10.4651 21.334 12.0007 21.334C16.6833 21.334 21.334 17.7264 21.334 11.9831C21.334 7.0004 17.3073 2.66732 12.024 2.66732C6.61432 2.66732 2.66732 7.07947 2.66732 12.0182C2.66732 13.5241 3.106 15.1515 3.93884 16.6969C4.44829 17.5715 4.50157 18.5475 4.28075 19.3851Z" fill="#899296"/>
<path d="M8.50065 12.0007C8.50065 12.645 7.97832 13.1673 7.33398 13.1673C6.68965 13.1673 6.16732 12.645 6.16732 12.0007C6.16732 11.3563 6.68965 10.834 7.33398 10.834C7.97832 10.834 8.50065 11.3563 8.50065 12.0007Z" fill="#899296"/>
<path d="M13.1673 12.0007C13.1673 12.645 12.645 13.1673 12.0007 13.1673C11.3563 13.1673 10.834 12.645 10.834 12.0007C10.834 11.3563 11.3563 10.834 12.0007 10.834C12.645 10.834 13.1673 11.3563 13.1673 12.0007Z" fill="#899296"/>
<path d="M17.834 12.0007C17.834 12.645 17.3117 13.1673 16.6673 13.1673C16.023 13.1673 15.5007 12.645 15.5007 12.0007C15.5007 11.3563 16.023 10.834 16.6673 10.834C17.3117 10.834 17.834 11.3563 17.834 12.0007Z" fill="#899296"/>
</svg>
