<svg width="128" height="128" viewBox="0 0 128 128" fill="none" xmlns="http://www.w3.org/2000/svg">
<path d="M44.2647 110.453L4.21402 70.4019C2.15002 68.3379 2.15002 64.9939 4.21402 62.9299L14.9313 52.2126C16.9953 50.1486 20.3393 50.1486 22.4033 52.2126L62.454 92.2632C64.518 94.3272 64.518 97.6712 62.454 99.7352L51.7367 110.453C49.6727 112.514 46.3287 112.514 44.2647 110.453Z" fill="url(#paint0_linear_complete)"/>
<path d="M33.547 92.2632L105.598 20.2126C107.662 18.1486 111.006 18.1486 113.07 20.2126L123.787 30.9299C125.851 32.9939 125.851 36.3379 123.787 38.4019L51.7363 110.453C49.6723 112.517 46.3283 112.517 44.2643 110.453L33.547 99.7352C31.4856 97.6712 31.4856 94.3272 33.547 92.2632Z" fill="url(#paint1_linear_complete)"/>
<defs>
<linearGradient id="paint0_linear_complete" x1="56.6433" y1="104.642" x2="9.44335" y2="57.4419" gradientUnits="userSpaceOnUse">
<stop offset="0.108" stop-color="#0D7044"/>
<stop offset="0.433" stop-color="#11945A"/>
</linearGradient>
<linearGradient id="paint1_linear_complete" x1="118.428" y1="25.5723" x2="38.907" y2="105.096" gradientUnits="userSpaceOnUse">
<stop stop-color="#2AC782"/>
<stop offset="1" stop-color="#21B876"/>
</linearGradient>
</defs>
</svg>
