<svg width="28" height="28" viewBox="0 0 28 28" fill="none" xmlns="http://www.w3.org/2000/svg">
<path d="M26.3842 24.4613H1.61537C0.723174 24.4613 0 23.7381 0 22.8459V5.61537C0 4.72317 0.723174 4 1.61537 4H26.3842C27.2764 4 27.9996 4.72317 27.9996 5.61537V22.8459C27.9996 23.7381 27.2765 24.4613 26.3842 24.4613Z" fill="#DA2128"/>
<path d="M0 11H27.9997V6.69238H0V11Z" fill="white"/>
<path d="M16.6924 21.2311H25.3077V16.4033H16.6924V21.2311Z" fill="white"/>
<path d="M6.46134 14.7693H2.15369C1.85648 14.7693 1.61523 14.5286 1.61523 14.2308C1.61523 13.9331 1.85648 13.6924 2.15369 13.6924H6.46134C6.75855 13.6924 6.9998 13.9331 6.9998 14.2308C6.9998 14.5286 6.75855 14.7693 6.46134 14.7693Z" fill="white"/>
<path d="M12.9223 14.7693H8.61463C8.31742 14.7693 8.07617 14.5286 8.07617 14.2308C8.07617 13.9331 8.31742 13.6924 8.61463 13.6924H12.9223C13.2195 13.6924 13.4607 13.9331 13.4607 14.2308C13.4607 14.5286 13.2195 14.7693 12.9223 14.7693Z" fill="white"/>
<path d="M9.15356 16.9236H2.15369C1.85648 16.9236 1.61523 16.6829 1.61523 16.3851C1.61523 16.0874 1.85648 15.8467 2.15369 15.8467H9.15362C9.45083 15.8467 9.69208 16.0874 9.69208 16.3851C9.69201 16.6829 9.45083 16.9236 9.15356 16.9236Z" fill="white"/>
<path d="M12.9234 16.9236H11.308C11.0108 16.9236 10.7695 16.6829 10.7695 16.3851C10.7695 16.0874 11.0108 15.8467 11.308 15.8467H12.9234C13.2206 15.8467 13.4618 16.0874 13.4618 16.3851C13.4618 16.6829 13.2206 16.9236 12.9234 16.9236Z" fill="white"/>
</svg>
