<svg width="38" height="37" viewBox="0 0 38 37" fill="none" xmlns="http://www.w3.org/2000/svg">
<path fill-rule="evenodd" clip-rule="evenodd" d="M11.2805 7.61914L11.3808 7.61915H26.6189L26.7192 7.61914C28.07 7.61907 29.2339 7.619 30.166 7.74431C31.1649 7.87861 32.1223 8.18146 32.899 8.95809C33.6756 9.73472 33.9785 10.6922 34.1128 11.6911C34.2381 12.6231 34.238 13.7871 34.2379 15.1379L34.2379 15.2382V16.762V22.8572L34.2379 22.9575C34.238 24.3084 34.2381 25.4723 34.1128 26.4044C33.9785 27.4032 33.6756 28.3607 32.899 29.1374C32.1223 29.914 31.1649 30.2168 30.166 30.3511C29.2339 30.4764 28.07 30.4764 26.7192 30.4763L26.6189 30.4763H11.3808L11.2805 30.4763C9.92962 30.4764 8.76572 30.4764 7.83366 30.3511C6.83478 30.2168 5.87729 29.914 5.10067 29.1374C4.32404 28.3607 4.02119 27.4032 3.88689 26.4044C3.76158 25.4723 3.76165 24.3084 3.76172 22.9576L3.76173 22.8572V15.2382L3.76172 15.1379C3.76165 13.787 3.76158 12.6231 3.88689 11.6911C4.02119 10.6922 4.32404 9.73472 5.10067 8.95809C5.87729 8.18146 6.83478 7.87861 7.83366 7.74431C8.76572 7.619 9.92962 7.61907 11.2805 7.61914ZM31.1903 15.2382C31.1903 13.7585 31.1871 12.8019 31.0923 12.0972C31.0034 11.4362 30.86 11.2291 30.744 11.1131C30.628 10.9971 30.4208 10.8536 29.7599 10.7648C29.0551 10.67 28.0986 10.6668 26.6189 10.6668H11.3808C9.90103 10.6668 8.94452 10.67 8.23975 10.7648C7.57881 10.8536 7.37166 10.9971 7.25566 11.1131C7.13966 11.2291 6.9962 11.4362 6.90734 12.0972C6.81258 12.8019 6.80934 13.7585 6.80934 15.2382H31.1903ZM6.80934 18.2858H31.1903V22.8572C31.1903 24.337 31.1871 25.2935 31.0923 25.9983C31.0034 26.6592 30.86 26.8664 30.744 26.9824C30.628 27.0984 30.4208 27.2418 29.7599 27.3307C29.0551 27.4254 28.0986 27.4287 26.6189 27.4287H11.3808C9.90103 27.4287 8.94452 27.4254 8.23975 27.3307C7.57881 27.2418 7.37166 27.0984 7.25566 26.9824C7.13966 26.8664 6.9962 26.6592 6.90734 25.9983C6.81258 25.2935 6.80934 24.337 6.80934 22.8572V18.2858ZM9.85696 22.8572C9.85696 22.0157 10.5392 21.3334 11.3808 21.3334H11.396C12.2376 21.3334 12.9198 22.0157 12.9198 22.8572C12.9198 23.6988 12.2376 24.3811 11.396 24.3811H11.3808C10.5392 24.3811 9.85696 23.6988 9.85696 22.8572Z" fill="#DA2128"/>
</svg>
