<svg width="24" height="24" viewBox="0 0 24 24" fill="none" xmlns="http://www.w3.org/2000/svg">
<path fill-rule="evenodd" clip-rule="evenodd" d="M16 4H8C6.34315 4 5 5.34315 5 7V17C5 18.6569 6.34315 20 8 20H16C17.6569 20 19 18.6569 19 17V7C19 5.34315 17.6569 4 16 4ZM8 2C5.23858 2 3 4.23858 3 7V17C3 19.7614 5.23858 22 8 22H16C18.7614 22 21 19.7614 21 17V7C21 4.23858 18.7614 2 16 2H8Z" fill="#3D3F40"/>
<path d="M8 8C8 7.44772 8.44772 7 9 7H12C12.5523 7 13 7.44772 13 8C13 8.55228 12.5523 9 12 9H9C8.44772 9 8 8.55228 8 8Z" fill="#3D3F40"/>
<path d="M8 12C8 11.4477 8.44772 11 9 11H15C15.5523 11 16 11.4477 16 12C16 12.5523 15.5523 13 15 13H9C8.44772 13 8 12.5523 8 12Z" fill="#3D3F40"/>
<path d="M8 16C8 15.4477 8.44772 15 9 15H15C15.5523 15 16 15.4477 16 16C16 16.5523 15.5523 17 15 17H9C8.44772 17 8 16.5523 8 16Z" fill="#3D3F40"/>
</svg>
