<svg width="28" height="28" viewBox="0 0 28 28" fill="none" xmlns="http://www.w3.org/2000/svg">
<mask id="mask0" style="mask-type:alpha" maskUnits="userSpaceOnUse" x="3" y="0" width="22" height="28">
<path fill-rule="evenodd" clip-rule="evenodd" d="M19.1142 0.0810547H14.6845C14.4417 0.0810547 14.2205 0.220569 14.1159 0.439679L12.5977 3.62058C7.41114 4.32039 3.51347 8.76108 3.52935 14.0313C3.54165 18.0914 5.87355 21.6452 9.31703 23.3688L7.3257 26.9853C6.94569 27.6753 7.92076 28.2969 8.38597 27.6612L11.0323 24.0448C11.6691 24.2326 12.3322 24.3621 13.0158 24.4268C18.3817 24.9349 23.2572 21.2876 24.2847 15.9965C25.2608 10.9705 22.4622 6.02037 17.7516 4.21929L19.655 1.03419C19.9059 0.614263 19.6034 0.0810547 19.1142 0.0810547ZM16.2754 4.23252C16.2718 4.23834 16.2683 4.24422 16.2649 4.25018L12.6918 10.2315L12.655 10.3025C12.4751 10.7091 12.7706 11.1847 13.2326 11.1847L18.8808 11.1846L13.1597 19.0029L16.019 13.8117L16.0526 13.741C16.2159 13.3363 15.9198 12.8778 15.4671 12.8778L9.57501 12.8772L15.0819 1.34049H18.003L16.2754 4.23252ZM17.094 5.31967C21.3624 6.83649 23.9207 11.2619 23.0478 15.7563C22.1439 20.4108 17.855 23.6194 13.1346 23.1724C12.6892 23.1303 12.2537 23.0568 11.8302 22.9545L20.6316 10.9268L20.6728 10.8632C20.9059 10.4535 20.6131 9.9248 20.1232 9.9248L14.342 9.92472L17.094 5.31967ZM9.92542 22.2639L14.4001 14.1373L8.57646 14.1379C8.14041 14.1379 7.84474 13.7099 7.97785 13.3109L8.0079 13.2366L11.9289 5.02169C7.79085 5.97371 4.77625 9.67972 4.78934 14.0275C4.80021 17.6167 6.87171 20.7561 9.92542 22.2639Z" fill="white"/>
</mask>
<g mask="url(#mask0)">
<rect width="28" height="28" fill="#F3C414"/>
</g>
<path d="M18.0022 1.33984L12.691 10.2309L12.6542 10.3018C12.4743 10.7084 12.7698 11.184 13.2318 11.184L18.88 11.1839L13.1589 19.0022L16.0182 13.8111L16.0518 13.7403C16.2151 13.3357 15.919 12.8772 15.4663 12.8772L9.57422 12.8765L15.0811 1.33984H18.0022Z" fill="#FFEBA2"/>
</svg>
