<svg width="24" height="24" viewBox="0 0 24 24" fill="none" xmlns="http://www.w3.org/2000/svg">
<path d="M4.56517 2C3.13358 2 2 3.17592 2 4.5904V5.52644C2 6.42952 2.34325 7.30008 2.96089 7.95685C4.57335 9.67141 6.1066 11.627 7.87638 13.1767C8.59423 13.9405 8.99905 14.9595 8.99905 16.0233V20.5952C8.99905 21.6306 10.1049 22.3498 11.0613 21.8304L13.8229 20.3255C14.5653 19.9201 15.0201 19.1386 15.0201 18.2984V16.0114C15.0201 14.9275 15.4478 13.8911 16.1944 13.1094L21.041 7.95596C21.6569 7.2995 22 6.42941 22 5.52644V4.5904C22 3.17681 20.8684 2 19.4359 2H4.56517Z" fill="#DA2128"/>
</svg>
