<svg width="28" height="28" viewBox="0 0 28 28" fill="none" xmlns="http://www.w3.org/2000/svg">
<path fill-rule="evenodd" clip-rule="evenodd" d="M10.5811 13.9964C10.5811 12.0713 12.1475 10.5049 14.0726 10.5049C15.9977 10.5049 17.5641 12.0713 17.5641 13.9964C17.5641 15.6216 16.4377 17.0248 14.8747 17.3938L14.713 17.432V27.0797L14.7087 27.1544C14.6717 27.4729 14.401 27.7201 14.0726 27.7201C13.7189 27.7201 13.4322 27.4334 13.4322 27.0797V17.432L13.2704 17.3938L13.1206 17.3549C11.6359 16.934 10.5811 15.5692 10.5811 13.9964ZM11.6254 13.9964C11.6254 15.3457 12.7232 16.4435 14.0725 16.4435C15.4219 16.4435 16.5196 15.3457 16.5196 13.9964C16.5196 12.647 15.4219 11.5492 14.0725 11.5492C12.7232 11.5492 11.6254 12.647 11.6254 13.9964Z" fill="#0180C7"/>
<path d="M23.7276 4.34217C29.051 9.66559 29.051 18.328 23.7276 23.6514C23.5048 23.8742 23.1437 23.8742 22.9209 23.6514C22.6981 23.4287 22.6981 23.0675 22.9209 22.8447C27.7998 17.9658 27.7998 10.0278 22.9209 5.14887C18.042 0.269953 10.104 0.269953 5.22504 5.14887C0.346125 10.0278 0.346125 17.9658 5.22504 22.8447C5.44782 23.0675 5.44782 23.4287 5.22504 23.6514C5.00227 23.8742 4.64112 23.8742 4.41834 23.6514C-0.905073 18.328 -0.905073 9.66559 4.41834 4.34217C9.74176 -0.981244 18.4042 -0.981244 23.7276 4.34217Z" fill="#009BF2"/>
<path d="M18.9628 9.10621C21.659 11.8025 21.6591 16.1904 18.9628 18.8866C18.7401 19.1094 18.3789 19.1094 18.1561 18.8866C17.9334 18.6638 17.9334 18.3027 18.1561 18.0799C20.4079 15.828 20.4079 12.1646 18.1561 9.91284C15.8991 7.65583 12.246 7.65592 9.98908 9.91284C7.73728 12.1647 7.73728 15.8281 9.98908 18.0799C10.2118 18.3027 10.2118 18.6638 9.98908 18.8866C9.76631 19.1094 9.40515 19.1094 9.18238 18.8866C6.48608 16.1903 6.48608 11.8025 9.18238 9.1062C11.8786 6.40991 16.2665 6.40991 18.9628 9.10621Z" fill="#0180C7"/>
<path d="M21.4147 6.65523C25.4728 10.7133 25.4727 17.2808 21.4147 21.3388C21.1919 21.5616 20.8307 21.5616 20.608 21.3388C20.3852 21.1161 20.3852 20.7549 20.608 20.5321C24.2116 16.9285 24.2116 11.0656 20.608 7.46193C17.0043 3.85831 11.1414 3.85831 7.53775 7.46193C3.93412 11.0656 3.93412 16.9285 7.53775 20.5321C7.76052 20.7549 7.76052 21.1161 7.53775 21.3388C7.31498 21.5616 6.95382 21.5616 6.73105 21.3388C2.67292 17.2807 2.67304 10.7132 6.73105 6.65523C10.7792 2.60711 17.3665 2.60711 21.4147 6.65523Z" fill="#009BF2"/>
</svg>
