<svg width="18" height="20" viewBox="0 0 18 20" fill="none" xmlns="http://www.w3.org/2000/svg">
<path fill-rule="evenodd" clip-rule="evenodd" d="M5.49955 8.50119C5.49955 10.4307 7.06908 12.001 9.00099 12.001C10.9329 12.001 12.5024 10.4307 12.5024 8.50119C12.5024 6.57086 10.933 4.99938 9.00099 4.99938C7.06893 4.99938 5.49955 6.57086 5.49955 8.50119ZM7.50387 8.50119C7.50387 7.67281 8.17688 7.00161 9.00099 7.00161C9.82509 7.00161 10.4981 7.67281 10.4981 8.50119C10.4981 9.32828 9.82537 9.99876 9.00099 9.99876C8.1766 9.99876 7.50387 9.32828 7.50387 8.50119Z" fill="black" fill-opacity="0.8"/>
<path fill-rule="evenodd" clip-rule="evenodd" d="M0.5 8.56318C0.5 11.469 2.15903 14.3229 4.01364 16.4342C4.9442 17.4936 5.93348 18.3771 6.80816 18.9979C7.24534 19.3082 7.65784 19.5557 8.02337 19.7266C8.38291 19.8948 8.72024 20 9 20C9.27976 20 9.61709 19.8948 9.97663 19.7266C10.3422 19.5557 10.7547 19.3082 11.1918 18.9979C12.0665 18.3771 13.0558 17.4936 13.9864 16.4342C15.841 14.3229 17.5 11.469 17.5 8.56318C17.5 3.84395 13.69 0 9 0C4.30999 0 0.5 3.84395 0.5 8.56318ZM2.50432 8.56318C2.50432 4.94302 5.42181 2.00223 9 2.00223C12.5782 2.00223 15.4957 4.94302 15.4957 8.56318C15.4957 10.8613 14.1378 13.1617 12.6047 14.9386C11.842 15.8226 11.045 16.5663 10.3716 17.1029C10.0348 17.3712 9.73132 17.5858 9.4807 17.7396C9.26525 17.8718 9.10372 17.9497 8.9999 17.9843C8.89615 17.9498 8.73468 17.872 8.51924 17.7399C8.26864 17.5862 7.96521 17.3717 7.62841 17.1034C6.95501 16.567 6.15803 15.8233 5.3953 14.9393C3.86218 13.1624 2.50432 10.8618 2.50432 8.56318Z" fill="black" fill-opacity="0.8"/>
</svg>
