<svg width="38" height="37" viewBox="0 0 38 37" fill="none" xmlns="http://www.w3.org/2000/svg">
<path fill-rule="evenodd" clip-rule="evenodd" d="M12.9062 7.61915L12.8059 7.61914C11.455 7.61907 10.2911 7.619 9.35905 7.74431C8.36017 7.87861 7.40269 8.18146 6.62606 8.95809C5.84943 9.73472 5.54658 10.6922 5.41228 11.6911C5.28697 12.6231 5.28704 13.787 5.28711 15.1379L5.28712 15.2382V21.3334L5.28711 21.4337C5.28704 22.7846 5.28697 23.9485 5.41228 24.8805C5.54658 25.8794 5.84943 26.8369 6.62606 27.6135C7.40269 28.3902 8.36017 28.693 9.35905 28.8273C10.2911 28.9526 11.455 28.9526 12.8058 28.9525L12.9062 28.9525H25.0966L25.197 28.9525C26.5478 28.9526 27.7117 28.9526 28.6437 28.8273C29.6426 28.693 30.6001 28.3902 31.3767 27.6135C32.1534 26.8369 32.4562 25.8794 32.5905 24.8805C32.7158 23.9485 32.7158 22.7846 32.7157 21.4337L32.7157 21.3334V15.2382L32.7157 15.1379C32.7158 13.7871 32.7158 12.6231 32.5905 11.6911C32.4562 10.6922 32.1534 9.73472 31.3767 8.95809C30.6001 8.18146 29.6426 7.87861 28.6437 7.74431C27.7117 7.619 26.5478 7.61907 25.1969 7.61914L25.0966 7.61915H12.9062ZM8.78105 11.1131C8.89705 10.9971 9.10421 10.8536 9.76514 10.7648C10.4699 10.67 11.4264 10.6668 12.9062 10.6668H25.0966C26.5764 10.6668 27.5329 10.67 28.2377 10.7648C28.8986 10.8536 29.1058 10.9971 29.2218 11.1131C29.3378 11.2291 29.4812 11.4362 29.5701 12.0972C29.5979 12.3043 29.6179 12.5331 29.6321 12.7906L19.6829 17.7652C19.2539 17.9797 18.7489 17.9797 18.3199 17.7652L8.37066 12.7906C8.38494 12.5331 8.40488 12.3043 8.43273 12.0972C8.52159 11.4362 8.66505 11.2291 8.78105 11.1131ZM8.33474 16.18V21.3334C8.33474 22.8132 8.33797 23.7697 8.43273 24.4745C8.52159 25.1354 8.66505 25.3426 8.78105 25.4585C8.89705 25.5745 9.10421 25.718 9.76514 25.8069C10.4699 25.9016 11.4264 25.9049 12.9062 25.9049H25.0966C26.5764 25.9049 27.5329 25.9016 28.2377 25.8069C28.8986 25.718 29.1058 25.5745 29.2218 25.4585C29.3378 25.3426 29.4812 25.1354 29.5701 24.4745C29.6648 23.7697 29.6681 22.8132 29.6681 21.3334V16.18L21.0458 20.4911C19.7588 21.1346 18.244 21.1346 16.957 20.4911L8.33474 16.18Z" fill="#DA2128"/>
</svg>
