<svg width="81" height="80" viewBox="0 0 81 80" fill="none" xmlns="http://www.w3.org/2000/svg">
<circle cx="40.5" cy="40" r="39" stroke="#DA2128" stroke-width="2"/>
<mask id="path-2-inside-1_2132_20549" fill="white">
<path fill-rule="evenodd" clip-rule="evenodd" d="M53.684 27.7279C52.1219 26.1658 49.5892 26.1658 48.0271 27.7279L40.9561 34.799L33.885 27.7279C32.3229 26.1658 29.7902 26.1658 28.2281 27.7279C26.666 29.29 26.666 31.8227 28.2281 33.3848L35.2992 40.4558L28.2281 47.5269C26.666 49.089 26.666 51.6217 28.2281 53.1838C29.7902 54.7459 32.3229 54.7459 33.885 53.1838L40.9561 46.1127L48.0271 53.1838C49.5892 54.7459 52.1219 54.7459 53.684 53.1838C55.2461 51.6217 55.2461 49.089 53.684 47.5269L46.6129 40.4558L53.684 33.3848C55.2461 31.8227 55.2461 29.29 53.684 27.7279Z"/>
</mask>
<path fill-rule="evenodd" clip-rule="evenodd" d="M53.684 27.7279C52.1219 26.1658 49.5892 26.1658 48.0271 27.7279L40.9561 34.799L33.885 27.7279C32.3229 26.1658 29.7902 26.1658 28.2281 27.7279C26.666 29.29 26.666 31.8227 28.2281 33.3848L35.2992 40.4558L28.2281 47.5269C26.666 49.089 26.666 51.6217 28.2281 53.1838C29.7902 54.7459 32.3229 54.7459 33.885 53.1838L40.9561 46.1127L48.0271 53.1838C49.5892 54.7459 52.1219 54.7459 53.684 53.1838C55.2461 51.6217 55.2461 49.089 53.684 47.5269L46.6129 40.4558L53.684 33.3848C55.2461 31.8227 55.2461 29.29 53.684 27.7279Z" fill="#FE4D54" fill-opacity="0.3"/>
<path d="M48.0271 27.7279L46.6129 26.3137L48.0271 27.7279ZM40.9561 34.799L39.5418 36.2132L40.9561 37.6274L42.3703 36.2132L40.9561 34.799ZM33.885 27.7279L32.4708 29.1421L32.4708 29.1421L33.885 27.7279ZM35.2992 40.4558L36.7134 41.8701L38.1276 40.4558L36.7134 39.0416L35.2992 40.4558ZM40.9561 46.1127L42.3703 44.6985L40.9561 43.2843L39.5418 44.6985L40.9561 46.1127ZM46.6129 40.4558L45.1987 39.0416L43.7845 40.4558L45.1987 41.8701L46.6129 40.4558ZM49.4413 29.1421C50.2224 28.3611 51.4887 28.3611 52.2698 29.1421L55.0982 26.3137C52.755 23.9706 48.9561 23.9706 46.6129 26.3137L49.4413 29.1421ZM42.3703 36.2132L49.4413 29.1421L46.6129 26.3137L39.5418 33.3848L42.3703 36.2132ZM32.4708 29.1421L39.5418 36.2132L42.3703 33.3848L35.2992 26.3137L32.4708 29.1421ZM29.6423 29.1421C30.4234 28.3611 31.6897 28.3611 32.4708 29.1421L35.2992 26.3137C32.9561 23.9706 29.1571 23.9706 26.8139 26.3137L29.6423 29.1421ZM29.6423 31.9706C28.8613 31.1895 28.8613 29.9232 29.6423 29.1421L26.8139 26.3137C24.4708 28.6569 24.4708 32.4558 26.8139 34.799L29.6423 31.9706ZM36.7134 39.0416L29.6423 31.9706L26.8139 34.799L33.885 41.8701L36.7134 39.0416ZM29.6423 48.9411L36.7134 41.8701L33.885 39.0416L26.8139 46.1127L29.6423 48.9411ZM29.6423 51.7696C28.8613 50.9885 28.8613 49.7222 29.6423 48.9411L26.8139 46.1127C24.4708 48.4558 24.4708 52.2548 26.8139 54.598L29.6423 51.7696ZM32.4708 51.7696C31.6897 52.5506 30.4234 52.5506 29.6423 51.7696L26.8139 54.598C29.1571 56.9411 32.9561 56.9411 35.2992 54.598L32.4708 51.7696ZM39.5418 44.6985L32.4708 51.7696L35.2992 54.598L42.3703 47.5269L39.5418 44.6985ZM49.4413 51.7696L42.3703 44.6985L39.5418 47.5269L46.6129 54.598L49.4413 51.7696ZM52.2698 51.7696C51.4887 52.5506 50.2224 52.5506 49.4413 51.7696L46.6129 54.598C48.9561 56.9411 52.755 56.9411 55.0982 54.598L52.2698 51.7696ZM52.2698 48.9411C53.0508 49.7222 53.0508 50.9885 52.2698 51.7696L55.0982 54.598C57.4413 52.2548 57.4413 48.4558 55.0982 46.1127L52.2698 48.9411ZM45.1987 41.8701L52.2698 48.9411L55.0982 46.1127L48.0271 39.0416L45.1987 41.8701ZM52.2698 31.9706L45.1987 39.0416L48.0271 41.8701L55.0982 34.799L52.2698 31.9706ZM52.2698 29.1421C53.0508 29.9232 53.0508 31.1895 52.2698 31.9706L55.0982 34.799C57.4413 32.4558 57.4413 28.6569 55.0982 26.3137L52.2698 29.1421Z" fill="#DA2128" mask="url(#path-2-inside-1_2132_20549)"/>
</svg>
