<svg width="40" height="40" viewBox="0 0 40 40" fill="none" xmlns="http://www.w3.org/2000/svg">
<path fill-rule="evenodd" clip-rule="evenodd" d="M40 20.0001C40 31.0001 31 40.0001 20 40.0001C8.99999 40.0001 -6.84259e-06 31.0001 -5.88094e-06 20.0001C-4.91929e-06 9.00012 9 0.000123175 20 0.000124137C31 0.000125098 40 9.00013 40 20.0001ZM23.7069 24.5368C24.0975 24.8715 24.0974 25.4143 23.7069 25.749C23.3164 26.0837 22.6832 26.0837 22.2927 25.749L16.2927 20.6059C16.1052 20.4452 15.9998 20.2272 15.9998 19.9998C15.9998 19.7725 16.1052 19.5545 16.2927 19.3938L22.2927 14.2511C22.6833 13.9163 23.3164 13.9163 23.7069 14.2511C24.0975 14.5858 24.0974 15.1285 23.7069 15.4633L18.414 19.9999L23.7069 24.5368Z" fill="black" fill-opacity="0.15"/>
</svg>
