<svg width="40" height="40" viewBox="0 0 40 40" fill="none" xmlns="http://www.w3.org/2000/svg">
<path fill-rule="evenodd" clip-rule="evenodd" d="M0 19.9999C0 8.99988 9 -0.00012207 20 -0.00012207C31 -0.00012207 40 8.99988 40 19.9999C40 30.9999 31 39.9999 20 39.9999C9 39.9999 0 30.9999 0 19.9999ZM16.2931 15.4632C15.9026 15.1285 15.9026 14.5857 16.2931 14.251C16.6836 13.9163 17.3168 13.9163 17.7073 14.251L23.7073 19.3941C23.8948 19.5548 24.0002 19.7728 24.0002 20.0002C24.0002 20.2275 23.8948 20.4455 23.7073 20.6062L17.7073 25.7489C17.3168 26.0837 16.6836 26.0837 16.2931 25.7489C15.9026 25.4142 15.9026 24.8715 16.2931 24.5367L21.586 20.0001L16.2931 15.4632Z" fill="black" fill-opacity="0.15"/>
</svg>
