<svg width="20" height="20" viewBox="0 0 20 20" fill="none" xmlns="http://www.w3.org/2000/svg">
<path fill-rule="evenodd" clip-rule="evenodd" d="M2.74766 3.37429C2.69477 3.43298 2.64232 3.48293 2.62621 3.49866C2.58629 3.53766 2.5464 3.57669 2.50796 3.61716C2.43064 3.69854 2.34699 3.79766 2.26996 3.92249C2.12425 4.15859 1.96834 4.53953 2.00559 5.14945C2.08378 6.42947 3.02577 8.8461 7.09243 12.9116C11.1586 16.9767 13.5748 17.9172 14.8542 17.9947C15.4638 18.0316 15.8445 17.8755 16.0805 17.7297C16.2918 17.5991 16.4471 17.4151 16.629 17.2512C17.3287 16.5493 17.7 16.0653 17.8772 15.7187C18.0345 15.411 18.0056 15.2837 17.9787 15.2025C17.9275 15.0479 17.7789 14.8192 17.3866 14.4169C17.1995 14.2251 16.9829 14.0186 16.7271 13.7752C16.4464 13.5082 16.1662 13.2408 15.8922 12.9668C15.436 12.5109 15.183 12.4892 15.0413 12.4929C14.9329 12.4958 14.7998 12.521 14.6047 12.5812C14.5074 12.6113 14.4058 12.6464 14.2863 12.6882C14.1717 12.7283 14.0379 12.7756 13.9007 12.82C13.3324 13.0041 12.5862 13.1811 11.6748 12.9578C10.7849 12.7398 9.86831 12.1736 8.84938 11.1549C7.83043 10.1363 7.26391 9.21977 7.04547 8.32994C6.82177 7.41867 6.99816 6.67234 7.18177 6.10381C7.2261 5.96656 7.27327 5.83272 7.31326 5.71813C7.35499 5.59855 7.38999 5.49686 7.41992 5.39955C7.47997 5.20439 7.50509 5.07115 7.50785 4.96264C7.51147 4.82058 7.48936 4.56738 7.03304 4.11119C6.73498 3.81321 6.46753 3.53172 6.22948 3.28117C6.01626 3.05675 5.80385 2.83123 5.58247 2.61478C5.18015 2.22143 4.95216 2.07267 4.79813 2.02146C4.71813 1.99485 4.59174 1.96535 4.28375 2.12291C3.9367 2.30044 3.45173 2.67259 2.74766 3.37429ZM7.67393 1.89783C7.91501 2.15156 8.16746 2.41726 8.44706 2.69677C9.19384 3.44335 9.52793 4.19974 9.5072 5.01356C9.49779 5.38301 9.41561 5.71429 9.3315 5.98767C9.28936 6.12462 9.24307 6.2582 9.20159 6.37707C9.15837 6.50093 9.12041 6.60873 9.08497 6.71847C8.9495 7.13793 8.89262 7.46537 8.9878 7.85313C9.08826 8.26233 9.39279 8.87014 10.2634 9.74051C11.134 10.6109 11.7418 10.9151 12.1507 11.0153C12.5381 11.1102 12.8652 11.0531 13.2844 10.9174C13.3941 10.8818 13.5018 10.8438 13.6256 10.8005C13.7444 10.7589 13.8779 10.7125 14.0148 10.6702C14.288 10.5859 14.6192 10.5034 14.9886 10.4936C15.8025 10.4722 16.559 10.8058 17.3059 11.5521C17.5821 11.8283 17.8448 12.0781 18.0957 12.3168C18.3393 12.5485 18.5837 12.7798 18.8185 13.0206C19.2367 13.4495 19.6727 13.9554 19.8774 14.5742C20.1065 15.2663 20.0047 15.951 19.6579 16.6292C19.3329 17.2648 18.7749 17.934 18.02 18.6887C17.9352 18.7734 17.8508 18.8582 17.764 18.9407C17.6149 19.0825 17.4067 19.2612 17.1319 19.431C16.5689 19.7789 15.7821 20.0545 14.7333 19.9911C12.6961 19.8677 9.83256 18.479 5.67841 14.326C1.52372 10.1725 0.133764 7.30887 0.0093136 5.27138C-0.0547496 4.22254 0.220351 3.43541 0.567979 2.87213C0.73761 2.59726 0.916208 2.38886 1.05798 2.23964C1.14047 2.1528 1.22562 2.06788 1.31032 1.98317C2.06686 1.22658 2.737 0.66765 3.37291 0.342353C4.05165 -0.00485533 4.73682 -0.106608 5.42921 0.123634C6.0476 0.329263 6.55285 0.766447 6.98065 1.18472C7.21772 1.4165 7.44559 1.65751 7.67393 1.89783Z" fill="black" fill-opacity="0.8"/>
</svg>
