<svg width="20" height="20" viewBox="0 0 20 20" fill="none" xmlns="http://www.w3.org/2000/svg">
<path d="M15.3117 15.3433C15.7806 14.8777 16.5311 14.8743 17.0039 15.3333L19.5513 17.3567C20.1496 17.9614 20.1496 18.9407 19.5513 19.5454C18.9516 20.1515 17.9782 20.1515 17.3785 19.5454L15.3047 17.1693C15.0672 16.927 14.9343 16.6001 14.9343 16.2599C14.9343 15.9187 15.0713 15.5854 15.3117 15.3433Z" fill="#DA2128"/>
<path fill-rule="evenodd" clip-rule="evenodd" d="M8.61234 0C3.85342 0 0 3.89865 0 8.70237C0 13.5061 3.85342 17.4047 8.61234 17.4047C13.3713 17.4047 17.2247 13.5061 17.2247 8.70237C17.2247 6.3952 16.3179 4.182 14.7031 2.54979C13.0882 0.917496 10.8973 0 8.61234 0ZM1.95122 8.70237C1.95122 4.9567 4.95053 1.95122 8.61234 1.95122C10.373 1.95122 12.0654 2.65802 13.316 3.92211C14.5673 5.18683 15.2735 6.906 15.2735 8.70237C15.2735 12.448 12.2741 15.4535 8.61234 15.4535C4.95053 15.4535 1.95122 12.448 1.95122 8.70237Z" fill="#DA2128"/>
</svg>
