<svg width="72" height="32" viewBox="0 0 72 32" fill="none" xmlns="http://www.w3.org/2000/svg">
<path fill-rule="evenodd" clip-rule="evenodd" d="M38.4003 15.7333C38.1337 15.4667 37.3337 15.2 36.1337 14.6667C35.467 14.4 35.067 14 35.067 13.7333C35.067 13.4667 35.2003 13.2 35.3337 13.0667C35.467 12.9333 35.7337 12.8 36.0003 12.8C36.4003 12.8 36.667 12.9333 36.9337 13.0667C36.9337 13.2 36.9337 13.3333 37.067 13.3333C37.3337 13.6 37.6003 13.7333 38.0003 13.6L38.8003 13.3333C39.067 13.2 39.3337 12.8 39.067 12.5333C38.8003 12.1333 38.5337 11.7333 38.0003 11.4667C37.7337 11.3333 37.3337 11.0667 37.067 11.0667V10.5333C37.2003 9.86667 36.667 9.33333 36.0003 9.33333C35.3337 9.33333 34.9337 9.86667 34.9337 10.5333V11.0667C34.4003 11.2 34.0003 11.4667 33.6003 11.8667C32.9337 12.2667 32.5337 12.9333 32.5337 13.7333C32.5337 14.8 32.9337 15.7333 33.7337 16.2667C33.867 16.4 34.667 16.6667 36.0003 17.3333C36.8003 17.7333 37.2003 18.1333 37.2003 18.6667C37.2003 18.9333 37.067 19.0667 36.9337 19.3333C36.667 19.4667 36.5337 19.6 36.1337 19.6C35.7337 19.6 35.3337 19.4667 35.067 19.2C34.9337 19.0667 34.8003 18.9333 34.667 18.6667C34.5337 18.4 34.1337 18.2667 33.867 18.4L32.667 18.6667C32.4003 18.8 32.1337 19.2 32.4003 19.4667C32.667 20 33.067 20.4 33.6003 20.8C34.0003 21.0667 34.4003 21.2 34.9337 21.3333V21.4667C34.9337 22.1333 35.467 22.6667 36.0003 22.6667C36.5337 22.6667 37.067 22.1333 37.067 21.4667V21.2C37.6003 21.0667 38.0003 20.8 38.5337 20.4C39.3337 19.7333 39.6003 18.9333 39.6003 17.8667C39.7337 17.0667 39.2003 16.2667 38.4003 15.7333Z" fill="#DA2128"/>
<path fill-rule="evenodd" clip-rule="evenodd" d="M49.3337 14.6667C49.3337 14.6667 49.3337 14.1333 49.3337 13.3333V10.6667C49.3337 6.93333 46.4003 4 42.667 4H29.3337C25.6003 4 22.667 6.93333 22.667 10.6667V13.3333C22.667 14.1333 22.667 14.6667 22.667 14.6667C22.667 14.6667 22.667 15.2 22.667 16C22.667 16.8 22.667 17.3333 22.667 17.3333C22.667 17.3333 22.667 17.8667 22.667 18.6667V21.3333C22.667 25.0667 25.6003 28 29.3337 28H42.667C46.4003 28 49.3337 25.0667 49.3337 21.3333V18.6667C49.3337 17.8667 49.3337 17.3333 49.3337 17.3333C49.3337 17.3333 49.3337 16.8 49.3337 16V14.6667ZM46.667 12.2667C46.667 12.2667 46.667 14.2667 46.667 16C46.667 17.7333 46.667 19.7333 46.667 19.7333V21.3333C46.667 23.6 44.9337 25.3333 42.667 25.3333H29.3337C27.067 25.3333 25.3337 23.6 25.3337 21.3333V19.7333C25.3337 19.7333 25.3337 17.7333 25.3337 16C25.3337 14.2667 25.3337 12.2667 25.3337 12.2667V10.6667C25.3337 8.4 27.067 6.66667 29.3337 6.66667H42.667C44.9337 6.66667 46.667 8.4 46.667 10.6667V12.2667Z" fill="#DA2128"/>
<path fill-rule="evenodd" clip-rule="evenodd" d="M15.7071 9.29288C16.0976 9.6834 16.0976 10.3166 15.7071 10.7071L10.4142 16.0002L15.7071 21.2929C16.0976 21.6834 16.0976 22.3166 15.7071 22.7071C15.3166 23.0976 14.6834 23.0976 14.2929 22.7071L8.2929 16.7073C8.10536 16.5198 8 16.2654 8 16.0002C8 15.735 8.10535 15.4806 8.29288 15.2931L14.2929 9.2929C14.6834 8.90237 15.3166 8.90236 15.7071 9.29288Z" fill="black" fill-opacity="0.3"/>
<path fill-rule="evenodd" clip-rule="evenodd" d="M56.2929 22.7071C55.9024 22.3166 55.9024 21.6834 56.2929 21.2929L61.5858 15.9998L56.2929 10.7071C55.9024 10.3166 55.9024 9.68344 56.2929 9.29291C56.6834 8.90238 57.3166 8.90237 57.7071 9.29289L63.7071 15.2927C63.8946 15.4802 64 15.7346 64 15.9998C64 16.265 63.8947 16.5194 63.7071 16.7069L57.7071 22.7071C57.3166 23.0976 56.6834 23.0976 56.2929 22.7071Z" fill="black" fill-opacity="0.3"/>
</svg>
