<svg width="40" height="38" viewBox="0 0 40 38" fill="none" xmlns="http://www.w3.org/2000/svg">
<path d="M26.2818 12.2649L26.047 11.7984L21.2267 2.22424C21.2266 2.22395 21.2265 2.22367 21.2263 2.22338C20.7271 1.23872 19.2708 1.23772 18.7742 2.22236C18.7741 2.22249 18.7741 2.22262 18.774 2.22275L13.953 11.7984L13.7182 12.2649L13.2012 12.3387L2.41442 13.8792L2.4137 13.8793C1.27729 14.0408 0.879169 15.3733 1.65641 16.1147L1.65669 16.1149L9.46072 23.5646L9.84759 23.9339L9.75519 24.4607L7.90952 34.9835C7.9095 34.9836 7.90948 34.9837 7.90947 34.9838C7.72905 36.0183 8.86397 36.8939 9.88928 36.3614L9.89239 36.3598L19.5422 31.3909L20 31.1552L20.4578 31.3909L30.1076 36.3598L30.1078 36.3598C31.1398 36.8915 32.2697 36.0128 32.0906 34.9842L26.2818 12.2649ZM26.2818 12.2649L26.7988 12.3387L37.5856 13.8792L37.5863 13.8793C38.7227 14.0408 39.1208 15.3733 38.3436 16.1147L38.3433 16.1149L30.5393 23.5646L30.1524 23.9339L30.2448 24.4607L32.0905 34.9835L26.2818 12.2649Z" fill="white" stroke="#BEBEBE" stroke-width="2"/>
</svg>
