<svg width="121" height="120" viewBox="0 0 121 120" fill="none" xmlns="http://www.w3.org/2000/svg">
<path d="M73.358 47.8409L73.3584 47.8404C74.4775 46.72 76.48 46.7197 77.6003 47.8407L77.6005 47.8409C78.1683 48.4087 78.479 49.1587 78.479 49.9619C78.479 50.765 78.1684 51.515 77.6003 52.0827L77.6 52.0829L57.9911 71.6918L57.9907 71.6923C57.4236 72.2601 56.6739 72.5708 55.8701 72.5708C55.0664 72.5708 54.3165 72.2601 53.7488 71.692L53.7486 71.6918L44.379 62.3217L44.3788 62.3215C43.8106 61.7537 43.5 61.0038 43.5 60.2007C43.5 59.3976 43.8106 58.6476 44.3788 58.0799L44.3794 58.0792C45.4984 56.9587 47.501 56.9584 48.6213 58.0794L48.6215 58.0797L55.163 64.6212L55.8701 65.3283L56.5772 64.6212L73.358 47.8409Z" fill="#B9E6C7" stroke="#4FBF72" stroke-width="2"/>
<circle cx="60.5" cy="59.5" r="37.5" fill="white" stroke="#4FBF72" stroke-width="2"/>
<path d="M46 60.5L57.1253 71.6253C57.5755 72.0755 58.3261 71.996 58.672 71.4615L74.5 47" stroke="#4FBF72" stroke-width="5" stroke-linecap="round"/>
</svg>
