<svg width="38" height="37" viewBox="0 0 38 37" fill="none" xmlns="http://www.w3.org/2000/svg">
<path fill-rule="evenodd" clip-rule="evenodd" d="M12.0905 4.57129H25.9092C26.9298 4.57128 27.7723 4.57126 28.462 4.61832C29.1771 4.66711 29.8385 4.77155 30.4752 5.03526C31.9687 5.65389 33.1553 6.84048 33.7739 8.33398C34.0377 8.97065 34.1421 9.63213 34.1909 10.3472C34.2379 11.0369 34.2379 11.8794 34.2379 12.9V14.0951C34.2379 15.5679 33.044 16.7618 31.5712 16.7618H31.1903C30.3487 16.7618 29.6665 17.444 29.6665 18.2856C29.6665 19.1272 30.3487 19.8094 31.1903 19.8094H31.5712C33.044 19.8094 34.2379 21.0033 34.2379 22.4761V23.6711C34.2379 24.6918 34.2379 25.5342 34.1909 26.2239C34.1421 26.939 34.0377 27.6005 33.7739 28.2372C33.1553 29.7307 31.9687 30.9173 30.4752 31.5359C29.8385 31.7996 29.1771 31.904 28.462 31.9528C27.7723 31.9999 26.9298 31.9999 25.9092 31.9999H12.0904C11.0698 31.9999 10.2273 31.9999 9.53766 31.9528C8.82256 31.904 8.16108 31.7996 7.52441 31.5359C6.03091 30.9173 4.84432 29.7307 4.22569 28.2372C3.96198 27.6005 3.85754 26.939 3.80875 26.2239C3.76169 25.5342 3.76171 24.6918 3.76172 23.6711L3.76172 22.4761C3.76172 21.0033 4.95563 19.8094 6.42839 19.8094H6.80934C7.65092 19.8094 8.33315 19.1272 8.33315 18.2856C8.33315 17.444 7.65092 16.7618 6.80934 16.7618H6.42839C4.95563 16.7618 3.76172 15.5679 3.76172 14.0951L3.76172 12.9C3.76171 11.8794 3.76169 11.0369 3.80875 10.3472C3.85754 9.63213 3.96198 8.97065 4.22569 8.33398C4.84432 6.84048 6.03091 5.65389 7.52441 5.03526C8.16108 4.77155 8.82256 4.66711 9.53766 4.61832C10.2273 4.57126 11.0698 4.57128 12.0905 4.57129ZM9.74512 7.65887C9.18518 7.69708 8.89411 7.76663 8.69068 7.85089C7.94393 8.16021 7.35064 8.7535 7.04132 9.50025C6.95706 9.70368 6.88751 9.99476 6.8493 10.5547C6.81016 11.1283 6.80934 11.8664 6.80934 12.9522V13.7141C9.33407 13.7141 11.3808 15.7608 11.3808 18.2856C11.3808 20.8103 9.33407 22.857 6.80934 22.857V23.6189C6.80934 24.7048 6.81016 25.4428 6.8493 26.0165C6.88751 26.5764 6.95706 26.8675 7.04132 27.0709C7.35064 27.8176 7.94393 28.4109 8.69068 28.7203C8.89411 28.8045 9.18518 28.8741 9.74512 28.9123C10.3187 28.9514 11.0568 28.9522 12.1427 28.9522H25.857C26.9428 28.9522 27.6809 28.9514 28.2545 28.9123C28.8144 28.8741 29.1055 28.8045 29.3089 28.7203C30.0557 28.4109 30.649 27.8176 30.9583 27.0709C31.0426 26.8675 31.1121 26.5764 31.1503 26.0165C31.1895 25.4428 31.1903 24.7048 31.1903 23.6189V22.857C28.6656 22.857 26.6189 20.8103 26.6189 18.2856C26.6189 15.7608 28.6656 13.7141 31.1903 13.7141V12.9522C31.1903 11.8664 31.1895 11.1283 31.1503 10.5547C31.1121 9.99476 31.0426 9.70368 30.9583 9.50025C30.649 8.7535 30.0557 8.16021 29.3089 7.85089C29.1055 7.76663 28.8144 7.69708 28.2545 7.65887C27.6809 7.61973 26.9428 7.61891 25.857 7.61891H12.1427C11.0568 7.61891 10.3187 7.61973 9.74512 7.65887Z" fill="#DA2128"/>
<path d="M18.3253 16.2875C18.5815 15.6247 18.7096 15.2933 18.9177 15.2473C18.9725 15.2353 19.029 15.2353 19.0837 15.2473C19.2919 15.2933 19.42 15.6247 19.6762 16.2875C19.8218 16.6644 19.8947 16.8529 20.031 16.9811C20.0692 17.017 20.1107 17.0491 20.1549 17.0767C20.3125 17.1752 20.5091 17.1935 20.9025 17.2301C21.5683 17.292 21.9013 17.3229 22.0029 17.5199C22.024 17.5607 22.0383 17.6049 22.0453 17.6506C22.079 17.8713 21.8342 18.1024 21.3447 18.5646L21.2088 18.6929C20.98 18.909 20.8655 19.017 20.7993 19.1518C20.7596 19.2327 20.733 19.3198 20.7206 19.4097C20.6998 19.5594 20.7333 19.7162 20.8003 20.0296L20.8242 20.1416C20.9444 20.7037 21.0045 20.9848 20.9295 21.123C20.8621 21.2471 20.738 21.3265 20.6009 21.3333C20.4483 21.3409 20.2332 21.159 19.8031 20.7953C19.5197 20.5556 19.378 20.4358 19.2207 20.389C19.077 20.3462 18.9245 20.3462 18.7808 20.389C18.6235 20.4358 18.4818 20.5556 18.1984 20.7953C17.7683 21.159 17.5532 21.3409 17.4006 21.3333C17.2635 21.3265 17.1394 21.2471 17.072 21.123C16.997 20.9848 17.0571 20.7037 17.1773 20.1416L17.2012 20.0296C17.2682 19.7162 17.3017 19.5594 17.2809 19.4097C17.2685 19.3198 17.2418 19.2327 17.2021 19.1518C17.136 19.017 17.0215 18.909 16.7927 18.6929L16.6567 18.5646C16.1672 18.1024 15.9225 17.8713 15.9562 17.6506C15.9632 17.6049 15.9775 17.5607 15.9985 17.5199C16.1002 17.3229 16.4331 17.292 17.099 17.2301C17.4923 17.1935 17.689 17.1752 17.8466 17.0767C17.8907 17.0491 17.9323 17.017 17.9705 16.9811C18.1068 16.8529 18.1796 16.6644 18.3253 16.2875Z" fill="#DA2128"/>
<path fill-rule="evenodd" clip-rule="evenodd" d="M18.754 14.503C18.9169 14.4671 19.0855 14.4671 19.2484 14.503C19.7167 14.6064 19.9405 14.9981 20.0368 15.1815C20.1477 15.3924 20.2573 15.6762 20.3727 15.9748C20.3775 15.9873 20.3824 15.9999 20.3872 16.0125C20.4646 16.2126 20.5066 16.3195 20.5431 16.3948C20.5488 16.4065 20.5535 16.4158 20.5573 16.4229C20.5629 16.424 20.5694 16.4253 20.577 16.4267C20.6548 16.4409 20.7637 16.4517 20.9734 16.4711C20.9873 16.4724 21.0012 16.4737 21.0152 16.475C21.3115 16.5025 21.6034 16.5296 21.8311 16.5805C22.0503 16.6296 22.464 16.7508 22.6804 17.1702C22.7397 17.285 22.7795 17.4084 22.7989 17.5353C22.868 17.9881 22.623 18.3277 22.4792 18.5018C22.3303 18.6822 22.1168 18.8837 21.8981 19.09C21.8882 19.0994 21.8782 19.1088 21.8682 19.1183L21.7323 19.2466C21.6106 19.3615 21.5469 19.4222 21.5031 19.4696C21.4916 19.4821 21.4843 19.4906 21.4801 19.4958C21.4789 19.4991 21.4779 19.5027 21.477 19.5065C21.4775 19.5134 21.4787 19.5266 21.4818 19.548C21.4915 19.6146 21.5102 19.7038 21.5458 19.87L21.5758 20.0105C21.6307 20.2669 21.6812 20.5033 21.7059 20.692C21.7263 20.8473 21.7659 21.1797 21.5995 21.4862C21.4097 21.8357 21.0509 22.0735 20.639 22.094C20.2741 22.112 19.9876 21.9113 19.8651 21.8242C19.7119 21.7154 19.5297 21.5612 19.3344 21.3961L19.3115 21.3767C19.1613 21.2497 19.0797 21.1813 19.0172 21.1359C19.0111 21.1315 19.0058 21.1277 19.0012 21.1245C18.9965 21.1277 18.9912 21.1315 18.9852 21.1359C18.9226 21.1813 18.841 21.2497 18.6908 21.3767L18.6679 21.3961C18.4727 21.5612 18.2904 21.7154 18.1373 21.8242C18.0148 21.9113 17.7283 22.112 17.3633 22.094C16.9515 22.0735 16.5926 21.8357 16.4029 21.4862C16.2365 21.1797 16.2761 20.8473 16.2964 20.692C16.3211 20.5033 16.3717 20.2669 16.4265 20.0105L16.4566 19.87C16.4921 19.7038 16.5108 19.6146 16.5205 19.548C16.5236 19.5266 16.5248 19.5134 16.5253 19.5065C16.5245 19.5027 16.5234 19.4991 16.5222 19.4958C16.518 19.4906 16.5108 19.4821 16.4992 19.4696C16.4555 19.4222 16.3918 19.3615 16.27 19.2466L16.1341 19.1183C16.1241 19.1088 16.1142 19.0994 16.1042 19.09C15.8855 18.8837 15.672 18.6822 15.5231 18.5018C15.3794 18.3277 15.1343 17.9881 15.2034 17.5353C15.2228 17.4084 15.2627 17.285 15.3219 17.1702C15.5384 16.7508 15.9521 16.6296 16.1712 16.5805C16.3989 16.5296 16.6908 16.5025 16.9872 16.475C17.0011 16.4737 17.015 16.4724 17.0289 16.4711C17.2386 16.4517 17.3476 16.4409 17.4254 16.4267C17.433 16.4253 17.4395 16.424 17.445 16.4229C17.4488 16.4158 17.4536 16.4065 17.4593 16.3948C17.4958 16.3195 17.5378 16.2126 17.6151 16.0125C17.62 15.9999 17.6248 15.9873 17.6297 15.9748C17.745 15.6762 17.8547 15.3924 17.9655 15.1815C18.0618 14.9981 18.2857 14.6064 18.754 14.503ZM19.0012 16.653C18.9448 16.7984 18.8886 16.9395 18.8304 17.0597C18.7546 17.216 18.6535 17.3847 18.4929 17.5358C18.4186 17.6056 18.3377 17.6681 18.251 17.7224C18.0612 17.8411 17.8699 17.8947 17.6979 17.926C17.5465 17.9535 17.3698 17.9699 17.194 17.9862C17.186 17.9869 17.1779 17.9877 17.1699 17.9884C17.166 17.9888 17.1621 17.9891 17.1582 17.9895C17.1655 17.9963 17.1728 18.0033 17.1802 18.0103L17.3162 18.1386C17.3316 18.1532 17.3474 18.168 17.3635 18.1831C17.5423 18.3507 17.757 18.5519 17.8865 18.8158C17.9622 18.9699 18.0125 19.135 18.036 19.3046C18.0683 19.5369 18.0341 19.7684 17.9918 19.9773C18.0251 19.951 18.0577 19.9262 18.0895 19.9031C18.2153 19.8117 18.3697 19.7162 18.5639 19.6584C18.8494 19.5735 19.1529 19.5735 19.4384 19.6584C19.6327 19.7162 19.787 19.8117 19.9129 19.9031C19.9446 19.9262 19.9772 19.951 20.0105 19.9773C19.9683 19.7684 19.934 19.5369 19.9663 19.3046C19.9899 19.135 20.0402 18.9699 20.1158 18.8158C20.2454 18.5519 20.46 18.3507 20.6388 18.1831C20.6549 18.168 20.6707 18.1532 20.6862 18.1386L20.8221 18.0103C20.8295 18.0033 20.8369 17.9963 20.8441 17.9895C20.8402 17.9891 20.8363 17.9888 20.8324 17.9884C20.8244 17.9877 20.8164 17.9869 20.8084 17.9862C20.6326 17.9699 20.4558 17.9535 20.3044 17.926C20.1325 17.8947 19.9412 17.8411 19.7513 17.7224C19.6647 17.6681 19.5837 17.6056 19.5095 17.5358C19.3488 17.3847 19.2478 17.216 19.172 17.0597C19.1137 16.9395 19.0576 16.7984 19.0012 16.653Z" fill="#DA2128"/>
</svg>
