<svg width="72" height="72" viewBox="0 0 72 72" fill="none" xmlns="http://www.w3.org/2000/svg">
<path d="M36 72C55.8823 72 72 55.8823 72 36C72 16.1177 55.8823 0 36 0C16.1177 0 0 16.1177 0 36C0 55.8823 16.1177 72 36 72Z" fill="url(#paint0_linear)" fill-opacity="0.4"/>
<path d="M36.0002 64.8002C51.906 64.8002 64.8002 51.906 64.8002 36.0002C64.8002 20.0944 51.906 7.2002 36.0002 7.2002C20.0944 7.2002 7.2002 20.0944 7.2002 36.0002C7.2002 51.906 20.0944 64.8002 36.0002 64.8002Z" fill="url(#paint1_linear)"/>
<path d="M21.8477 27.969C21.8477 32.3751 23.8617 36.3092 27.0189 38.904C29.7239 41.127 31.299 44.4542 31.299 47.9554V47.9607C31.299 48.4579 31.5005 48.9079 31.8263 49.2337L33.235 50.6424H32.0978C31.7918 50.6424 31.5438 50.8903 31.5438 51.1963V52.1451C31.5438 52.2973 31.6053 52.4351 31.7047 52.5352L31.7046 52.5353L32.5904 53.4211C32.38 53.4998 32.2294 53.7008 32.2294 53.9386V54.8875C32.2294 55.0545 32.3049 55.2025 32.4218 55.304L32.4191 55.3067L33.4118 56.2994C33.3169 56.3989 33.2577 56.5329 33.2577 56.6812V57.63C33.2577 57.798 33.334 57.9464 33.4519 58.048L33.4491 58.0508L39.9303 64.5321C53.7336 62.6483 64.4246 50.9863 64.7903 36.754L46.298 18.2616C43.7174 15.5251 40.0586 13.8164 36.0003 13.8164C28.184 13.8164 21.8477 20.1527 21.8477 27.969Z" fill="url(#paint2_linear)"/>
<path d="M40.4565 52.1454C40.4565 52.4512 40.2086 52.6993 39.9026 52.6993H32.0979C31.792 52.6993 31.5439 52.4514 31.5439 52.1454V51.1965C31.5439 50.8906 31.792 50.6426 32.0979 50.6426H39.9026C40.2085 50.6426 40.4565 50.8906 40.4565 51.1965V52.1454Z" fill="white"/>
<path d="M39.7709 54.8875C39.7709 55.1934 39.523 55.4415 39.217 55.4415H32.7834C32.4776 55.4415 32.2295 55.1935 32.2295 54.8875V53.9387C32.2295 53.6328 32.4776 53.3848 32.7834 53.3848H39.217C39.5229 53.3848 39.7709 53.6327 39.7709 53.9387V54.8875Z" fill="white"/>
<path d="M38.7424 57.6297C38.7424 57.9356 38.4945 58.1837 38.1885 58.1837H33.8118C33.5059 58.1837 33.2578 57.9356 33.2578 57.6297V56.6809C33.2578 56.375 33.5059 56.127 33.8118 56.127H38.1886C38.4945 56.127 38.7425 56.375 38.7425 56.6809V57.6297H38.7424Z" fill="white"/>
<path d="M36.0003 13.8164C28.184 13.8164 21.8477 20.1527 21.8477 27.969C21.8477 32.375 23.8617 36.3092 27.0189 38.904C29.7239 41.1269 31.299 44.4542 31.299 47.9554V47.9607C31.299 48.9549 32.105 49.7609 33.0992 49.7609H38.9012C39.8954 49.7609 40.7014 48.955 40.7014 47.9607V47.9554C40.7014 44.45 42.2733 41.1297 44.9815 38.904C48.1387 36.3092 50.1528 32.375 50.1528 27.969C50.1529 20.1527 43.8165 13.8164 36.0003 13.8164ZM42.44 32.0182C42.44 32.3241 42.1919 32.5722 41.886 32.5722H36.8328V46.2442C36.8328 46.5501 36.5848 46.7981 36.2788 46.7981H35.7218C35.4159 46.7981 35.1679 46.5502 35.1679 46.2442V32.5722H30.1146C29.8087 32.5722 29.5607 32.3241 29.5607 32.0182V31.4611C29.5607 31.1552 29.8087 30.9072 30.1146 30.9072H41.886C42.1919 30.9072 42.44 31.1552 42.44 31.4611V32.0182Z" fill="white"/>
<defs>
<linearGradient id="paint0_linear" x1="11.0769" y1="62.3077" x2="57.4615" y2="11.7692" gradientUnits="userSpaceOnUse">
<stop stop-color="#F8BF2E"/>
<stop offset="1" stop-color="#FFDE45"/>
</linearGradient>
<linearGradient id="paint1_linear" x1="16.0617" y1="57.0463" x2="53.1694" y2="16.6156" gradientUnits="userSpaceOnUse">
<stop stop-color="#F8BF2E"/>
<stop offset="1" stop-color="#FFDE45"/>
</linearGradient>
<linearGradient id="paint2_linear" x1="25.8465" y1="26.7189" x2="54.013" y2="51.3645" gradientUnits="userSpaceOnUse">
<stop stop-color="#CD6F00" stop-opacity="0.8"/>
<stop offset="1" stop-color="#CD6F00" stop-opacity="0.2"/>
</linearGradient>
</defs>
</svg>
