<svg width="28" height="28" viewBox="0 0 28 28" fill="none" xmlns="http://www.w3.org/2000/svg">
<g clip-path="url(#clip0)">
<path fill-rule="evenodd" clip-rule="evenodd" d="M6.62889 10.4631C5.26863 12.426 4.20109 14.5496 4.20109 17.0865C4.16584 19.7093 5.17408 22.2387 7.00395 24.1181C8.83381 25.9974 11.3354 27.0728 13.9582 27.1076C16.5815 27.0744 19.084 25.9994 20.9142 24.1197C22.7444 22.24 23.7521 19.7097 23.7154 17.0865C23.7154 13.8035 22.0853 11.5421 20.2372 9.05118L14.0615 0.705961C13.9525 0.556734 11.915 3.35187 11.7657 3.57571C11.0005 4.60499 10.2352 5.64001 9.46994 6.68077C8.51145 7.93198 7.50704 9.16023 6.62889 10.4631Z" fill="#8FE4FF" stroke="#00A2E7" stroke-width="1.7" stroke-linecap="round" stroke-linejoin="round"/>
</g>
<defs>
<clipPath id="clip0">
<rect width="28" height="28" fill="white"/>
</clipPath>
</defs>
</svg>
