<svg width="90" height="112" viewBox="0 0 90 112" fill="none" xmlns="http://www.w3.org/2000/svg">
<g clip-path="url(#clip0_1086_41543)">
<path d="M89.0842 12.0039C89.0842 10.6009 88.8078 9.21168 88.2707 7.91553C87.7335 6.61938 86.9463 5.4417 85.9538 4.44975C84.9614 3.45779 83.7832 2.671 82.4866 2.1343C81.19 1.5976 79.8003 1.3215 78.3969 1.32178H12.3652C13.7699 1.32053 15.1611 1.59604 16.4592 2.13257C17.7574 2.6691 18.937 3.45613 19.9307 4.44867C20.9244 5.44121 21.7127 6.61981 22.2506 7.91708C22.7884 9.21436 23.0652 10.6049 23.0652 12.0092V104.588C23.0652 105.15 23.2885 105.689 23.6858 106.086C24.0832 106.483 24.6221 106.707 25.184 106.707H86.9686C87.5305 106.707 88.0695 106.483 88.4668 106.086C88.8642 105.689 89.0874 105.15 89.0874 104.588L89.0842 12.0039Z" fill="#FBE9EA"/>
<path opacity="0.5" d="M12.3721 1.32178C9.53682 1.32178 6.81766 2.44777 4.81281 4.45204C2.80795 6.45632 1.68164 9.1747 1.68164 12.0092V82.3092C1.69031 83.7199 2.25684 85.07 3.25757 86.0646C4.2583 87.0593 5.61198 87.6179 7.02317 87.6184H23.0658V12.0092C23.0658 10.6054 22.7891 9.21541 22.2517 7.91855C21.7142 6.62169 20.9265 5.44338 19.9335 4.45092C18.9404 3.45846 17.7615 2.6713 16.4641 2.13439C15.1668 1.59749 13.7763 1.32136 12.3721 1.32178Z" fill="#FE4D54"/>
<path d="M7.02344 87.6185C8.44067 87.6177 9.79957 87.0543 10.8014 86.0521C11.8032 85.05 12.366 83.6911 12.366 82.2743V21.8811C12.366 21.3194 12.5893 20.7806 12.9866 20.3833C13.384 19.9861 13.9229 19.7629 14.4848 19.7629H23.066V87.6185H7.02344Z" fill="white"/>
<path d="M63.4673 32.5747C61.5176 34.0477 59.1405 34.8447 56.6967 34.8447C54.2528 34.8447 51.8757 34.0477 49.926 32.5747C47.3321 33.184 45.02 34.6514 43.3648 36.7389C41.7095 38.8264 40.8081 41.4117 40.8066 44.0755V50.2183C40.8066 50.7801 41.0299 51.3188 41.4272 51.7161C41.8246 52.1133 42.3635 52.3365 42.9255 52.3365H70.47C71.0319 52.3365 71.5709 52.1133 71.9682 51.7161C72.3656 51.3188 72.5888 50.7801 72.5888 50.2183V44.0755C72.5874 41.4113 71.6858 38.8258 70.0301 36.7382C68.3744 34.6506 66.0618 33.1835 63.4673 32.5747Z" fill="#FE4D54"/>
<path d="M56.6985 34.8455C62.935 34.8455 67.9907 29.7913 67.9907 23.5565C67.9907 17.3218 62.935 12.2676 56.6985 12.2676C50.4619 12.2676 45.4062 17.3218 45.4062 23.5565C45.4062 29.7913 50.4619 34.8455 56.6985 34.8455Z" fill="white"/>
<path d="M82.0401 105.647H65.4443C64.9929 105.647 64.5599 105.759 64.2407 105.958C63.9215 106.156 63.7422 106.426 63.7422 106.707C63.7422 106.987 63.9215 107.257 64.2407 107.455C64.5599 107.654 64.9929 107.766 65.4443 107.766H82.0401C82.4915 107.766 82.9244 107.654 83.2436 107.455C83.5629 107.257 83.7422 106.987 83.7422 106.707C83.7422 106.426 83.5629 106.156 83.2436 105.958C82.9244 105.759 82.4915 105.647 82.0401 105.647Z" fill="#DA2128"/>
<path d="M77.3963 0.262695H12.3646C9.25023 0.266902 6.2647 1.50603 4.06309 3.70819C1.86148 5.91036 0.623616 8.8957 0.621094 12.0092V39.5045V39.5215V82.2753C0.621094 82.3145 0.621094 82.3611 0.62851 82.4056C0.666894 84.0776 1.35696 85.6686 2.55165 86.8394C3.74634 88.0102 5.35118 88.6682 7.02414 88.6733H22.0052V104.585C22.0052 105.428 22.34 106.236 22.9361 106.832C23.5321 107.428 24.3405 107.763 25.1834 107.763H64.2984C64.5794 107.763 64.8488 107.651 65.0475 107.452C65.2462 107.254 65.3578 106.984 65.3578 106.703C65.3578 106.423 65.2462 106.153 65.0475 105.955C64.8488 105.756 64.5794 105.644 64.2984 105.644H25.1834C24.9024 105.644 24.633 105.533 24.4343 105.334C24.2356 105.136 24.124 104.866 24.124 104.585V12.0092C24.1227 10.1171 23.6639 8.25344 22.7866 6.57695C21.9092 4.90046 20.6395 3.46088 19.0855 2.3809H77.3963C79.948 2.38482 82.3941 3.39993 84.1984 5.20374C86.0027 7.00755 87.0181 9.45292 87.0221 12.0039V104.588C87.0221 104.869 86.9104 105.139 86.7118 105.337C86.5131 105.536 86.2436 105.648 85.9627 105.648H77.3677C77.0867 105.648 76.8173 105.759 76.6186 105.958C76.4199 106.156 76.3083 106.426 76.3083 106.707C76.3083 106.988 76.4199 107.257 76.6186 107.456C76.8173 107.654 77.0867 107.766 77.3677 107.766H85.9648C86.8077 107.766 87.6161 107.431 88.2121 106.835C88.8081 106.239 89.143 105.431 89.143 104.588V12.0039C89.1391 8.89077 87.9001 5.90631 85.698 3.7052C83.4958 1.50409 80.5103 0.266058 77.3963 0.262695ZM11.7777 86.5583C12.839 85.3843 13.4258 83.8577 13.424 82.2753V21.8811C13.424 21.6002 13.5356 21.3308 13.7343 21.1322C13.933 20.9336 14.2024 20.822 14.4834 20.822H22.0052V86.5583H11.7777ZM22.0052 12.0092V18.7038H14.4834C13.6405 18.7038 12.8321 19.0385 12.2361 19.6344C11.64 20.2302 11.3052 21.0384 11.3052 21.8811V82.2753C11.3097 83.4112 10.8626 84.5024 10.0624 85.3088C9.26209 86.1152 8.17417 86.5707 7.03792 86.5752C5.90167 86.5797 4.81017 86.1328 4.00354 85.3328C3.19691 84.5327 2.74122 83.4451 2.73673 82.3092V12.0092C2.73673 10.7448 2.98584 9.49276 3.46985 8.3246C3.95385 7.15644 4.66327 6.09503 5.5576 5.20096C6.45193 4.30689 7.51365 3.59768 8.68214 3.11381C9.85064 2.62994 11.103 2.3809 12.3678 2.3809C13.6326 2.3809 14.8849 2.62994 16.0534 3.11381C17.2219 3.59768 18.2836 4.30689 19.178 5.20096C20.0723 6.09503 20.7817 7.15644 21.2657 8.3246C21.7497 9.49276 21.9988 10.7448 21.9988 12.0092H22.0052Z" fill="#DA2128"/>
<path d="M73.659 62.0867H40.0519C39.8672 62.0867 39.6901 62.1983 39.5595 62.3969C39.4288 62.5955 39.3555 62.8649 39.3555 63.1458C39.3555 63.4267 39.4288 63.6961 39.5595 63.8947C39.6901 64.0933 39.8672 64.2049 40.0519 64.2049H73.659C73.8437 64.2049 74.0209 64.0933 74.1515 63.8947C74.2821 63.6961 74.3555 63.4267 74.3555 63.1458C74.3555 62.8649 74.2821 62.5955 74.1515 62.3969C74.0209 62.1983 73.8437 62.0867 73.659 62.0867Z" fill="#DA2128"/>
<path d="M73.659 76.3845H40.0519C39.8672 76.3845 39.6901 76.4961 39.5595 76.6947C39.4288 76.8933 39.3555 77.1627 39.3555 77.4436C39.3555 77.7245 39.4288 77.9939 39.5595 78.1925C39.6901 78.3911 39.8672 78.5027 40.0519 78.5027H73.659C73.8437 78.5027 74.0209 78.3911 74.1515 78.1925C74.2821 77.9939 74.3555 77.7245 74.3555 77.4436C74.3555 77.1627 74.2821 76.8933 74.1515 76.6947C74.0209 76.4961 73.8437 76.3845 73.659 76.3845Z" fill="#DA2128"/>
<path d="M73.659 90.6824H40.0519C39.8672 90.6824 39.6901 90.794 39.5595 90.9926C39.4288 91.1912 39.3555 91.4606 39.3555 91.7415C39.3555 92.0224 39.4288 92.2917 39.5595 92.4904C39.6901 92.689 39.8672 92.8006 40.0519 92.8006H73.659C73.8437 92.8006 74.0209 92.689 74.1515 92.4904C74.2821 92.2917 74.3555 92.0224 74.3555 91.7415C74.3555 91.4606 74.2821 91.1912 74.1515 90.9926C74.0209 90.794 73.8437 90.6824 73.659 90.6824Z" fill="#DA2128"/>
<path d="M39.7461 44.0755V50.2183C39.7461 51.061 40.0809 51.8692 40.677 52.465C41.273 53.0609 42.0814 53.3956 42.9243 53.3956H70.4689C71.3118 53.3956 72.1202 53.0609 72.7162 52.465C73.3122 51.8692 73.6471 51.061 73.6471 50.2183V44.0755C73.6435 41.5063 72.8723 38.9967 71.4322 36.8687C69.9922 34.7407 67.949 33.0912 65.5649 32.1321C67.2541 30.3903 68.3927 28.1898 68.8385 25.8051C69.2843 23.4204 69.0176 20.9573 68.0717 18.7232C67.1257 16.4891 65.5425 14.5831 63.5196 13.2431C61.4967 11.9031 59.1238 11.1885 56.6971 11.1885C54.2704 11.1885 51.8975 11.9031 49.8746 13.2431C47.8517 14.5831 46.2685 16.4891 45.3226 18.7232C44.3766 20.9573 44.1099 23.4204 44.5557 25.8051C45.0016 28.1898 46.1401 30.3903 47.8294 32.1321C45.4449 33.091 43.4015 34.7403 41.9612 36.8683C40.5209 38.9964 39.7496 41.5062 39.7461 44.0755V44.0755ZM56.6966 13.3266C58.7205 13.3264 60.699 13.9262 62.3819 15.0502C64.0648 16.1741 65.3766 17.7717 66.1512 19.641C66.9259 21.5102 67.1287 23.5671 66.734 25.5516C66.3392 27.5361 65.3647 29.359 63.9337 30.7897C62.5027 32.2205 60.6794 33.1949 58.6944 33.5897C56.7094 33.9845 54.6518 33.782 52.782 33.0078C50.9121 32.2335 49.3139 30.9223 48.1895 29.24C47.065 27.5577 46.4648 25.5798 46.4648 23.5565C46.4679 20.8445 47.5469 18.2445 49.465 16.3267C51.3831 14.4089 53.9838 13.33 56.6966 13.3266V13.3266ZM49.7183 33.7345C51.7713 35.1471 54.2048 35.9034 56.6971 35.9034C59.1894 35.9034 61.623 35.1471 63.6759 33.7345C65.9324 34.3686 67.9203 35.7216 69.3375 37.588C70.7547 39.4545 71.5239 41.7323 71.5283 44.0755V50.2183C71.5283 50.4992 71.4167 50.7686 71.218 50.9672C71.0193 51.1659 70.7498 51.2774 70.4689 51.2774H42.9243C42.6433 51.2774 42.3739 51.1659 42.1752 50.9672C41.9765 50.7686 41.8649 50.4992 41.8649 50.2183V44.0755C41.8695 41.7322 42.6389 39.4543 44.0563 37.5879C45.4737 35.7215 47.4617 34.3686 49.7183 33.7345V33.7345Z" fill="#DA2128"/>
</g>
<defs>
<clipPath id="clip0_1086_41543">
<rect width="89" height="112" fill="white" transform="translate(0.5)"/>
</clipPath>
</defs>
</svg>
