<svg width="24" height="24" viewBox="0 0 24 24" fill="none" xmlns="http://www.w3.org/2000/svg">
<path fill-rule="evenodd" clip-rule="evenodd" d="M2.65984 9.86681C3.052 10.3538 3.59759 10.6357 4.24579 10.7963C4.89015 10.956 5.65273 11 6.50055 11C7.34838 11 8.11096 10.956 8.75531 10.7963C9.40346 10.6357 9.94901 10.3538 10.3412 9.86693C10.6808 9.44576 10.8432 8.9548 10.9225 8.39869C11.0121 7.77137 11.0006 7.13202 11.0006 6.5C11.0006 5.7838 10.9896 5.14178 10.9059 4.5878C10.8218 4.0317 10.6617 3.54286 10.3479 3.14413C9.71545 2.34057 8.54071 2 6.50055 2C4.46039 2 3.28566 2.34057 2.65322 3.14413C2.33941 3.54286 2.17926 4.0317 2.09522 4.5878C2.0115 5.14178 2.00055 5.7838 2.00055 6.5C2.00055 7.13329 1.98835 7.77388 2.07859 8.4024C2.15796 8.95523 2.32037 9.44578 2.65984 9.86681Z" fill="#DA2128"/>
<path fill-rule="evenodd" clip-rule="evenodd" d="M13.0786 8.4024C13.158 8.95529 13.3204 9.44588 13.6599 9.86693C14.0521 10.3538 14.5976 10.6357 15.2458 10.7963C15.8901 10.956 16.6527 11 17.5006 11C18.3484 11 19.111 10.956 19.7553 10.7963C20.4035 10.6357 20.9491 10.3538 21.3413 9.86681C21.6808 9.44566 21.8432 8.95474 21.9225 8.39869C22.0006 7.85195 22.0006 7.22187 22.0006 6.51416C22.0006 5.87249 22.002 5.22381 21.9059 4.5878C21.8218 4.0317 21.6617 3.54286 21.3479 3.14413C20.7154 2.34057 19.5407 2 17.5006 2C15.4604 2 14.2857 2.34057 13.6532 3.14413C13.3394 3.54286 13.1793 4.0317 13.0952 4.5878C13.0115 5.14178 13.0006 5.7838 13.0006 6.5C13.0006 7.13329 12.9884 7.77388 13.0786 8.4024Z" fill="#DA2128"/>
<path fill-rule="evenodd" clip-rule="evenodd" d="M2.65995 20.8669C3.0521 21.3538 3.59764 21.6357 4.24579 21.7963C4.89015 21.956 5.65273 22 6.50055 22C7.34838 22 8.11096 21.956 8.75531 21.7963C9.40346 21.6357 9.94901 21.3538 10.3412 20.8669C10.6808 20.4458 10.8432 19.9548 10.9225 19.3987C11.0121 18.7714 11.0006 18.132 11.0006 17.5C11.0006 16.7838 10.9896 16.1418 10.9059 15.5878C10.8218 15.0317 10.6617 14.5429 10.3479 14.1441C9.71545 13.3406 8.54071 13 6.50055 13C4.46039 13 3.28566 13.3406 2.65322 14.1441C2.33941 14.5429 2.17926 15.0317 2.09522 15.5878C1.99785 16.2321 2.00055 16.889 2.00055 17.539C2.00055 18.2349 2.00055 18.8588 2.07859 19.4024C2.15797 19.9553 2.32041 20.4459 2.65995 20.8669Z" fill="#DA2128"/>
<path fill-rule="evenodd" clip-rule="evenodd" d="M13.0006 17.539C13.0005 18.2349 13.0005 18.8588 13.0786 19.4024C13.3881 21.5583 14.7506 22 17.5006 22C20.2506 22 21.6146 21.557 21.9225 19.3987C22.0121 18.7714 22.0006 18.132 22.0006 17.5C22.0006 16.7838 21.9896 16.1418 21.9059 15.5878C21.8218 15.0317 21.6617 14.5429 21.3479 14.1441C20.7154 13.3406 19.5407 13 17.5006 13C15.4604 13 14.2857 13.3406 13.6532 14.1441C13.3394 14.5429 13.1793 15.0317 13.0952 15.5878C12.9979 16.232 13.0006 16.889 13.0006 17.539Z" fill="#DA2128"/>
</svg>
