<svg width="24" height="24" viewBox="0 0 24 24" fill="none" xmlns="http://www.w3.org/2000/svg">
<path fill-rule="evenodd" clip-rule="evenodd" d="M12 2C6.2 2 2 6.7 2 12C2 13.7 2.5 15.4 3.3 17C3.5 17.3 3.5 17.6 3.4 17.9L2.7 20.1C2.5 20.6 3 21 3.5 20.9L5.5 20.3C6 20.1 6.5 20.4 7 20.7C8.5 21.6 10.4 22 12 22C17 22 22 18.2 22 12C22 6.7 17.7 2 12 2ZM7.4 13.3C6.7 13.3 6.1 12.7 6.1 12C6.1 11.3 6.7 10.7 7.4 10.7C8.1 10.7 8.7 11.3 8.7 12C8.7 12.7 8.1 13.3 7.4 13.3ZM12 13.3C11.3 13.3 10.7 12.7 10.7 12C10.7 11.3 11.3 10.7 12 10.7C12.7 10.7 13.3 11.3 13.3 12C13.3 12.7 12.7 13.3 12 13.3ZM16.6 13.3C15.9 13.3 15.3 12.7 15.3 12C15.3 11.3 15.9 10.7 16.6 10.7C17.3 10.7 17.9 11.3 17.9 12C17.9 12.7 17.3 13.3 16.6 13.3Z" fill="#DA2128"/>
</svg>
