<svg width="72" height="72" viewBox="0 0 72 72" fill="none" xmlns="http://www.w3.org/2000/svg">
<g clip-path="url(#clip0_2630_99893)">
<path d="M36 65C52.0163 65 65 52.0163 65 36C65 19.9837 52.0163 7 36 7C19.9837 7 7 19.9837 7 36C7 52.0163 19.9837 65 36 65Z" fill="#E7272A"/>
<path d="M28.4004 23.25C24.2583 23.25 20.9004 26.6079 20.9004 30.75V33.75V42C20.9023 43 21.9023 46.5 24.9007 47.9L54.4023 73C58.5445 73 65.4004 59.8921 65.4004 55.75V48.25L68.4023 45.5L50.0435 27.2724C50.0435 27.1484 48.0265 23.25 43.4004 23.25H28.4004Z" fill="url(#paint0_linear_2630_99893)"/>
</g>
<path d="M36 72C55.8823 72 72 55.8823 72 36C72 16.1177 55.8823 0 36 0C16.1177 0 0 16.1177 0 36C0 55.8823 16.1177 72 36 72Z" fill="#DA2128" fill-opacity="0.4"/>
<path fill-rule="evenodd" clip-rule="evenodd" d="M28.5 23.25C24.3579 23.25 21 26.6079 21 30.75H51C51 26.6079 47.6421 23.25 43.5 23.25H28.5ZM21 41.25V33.75H51V41.25C51 45.3921 47.6421 48.75 43.5 48.75H28.5C24.3579 48.75 21 45.3921 21 41.25ZM28.5 39.75C27.6716 39.75 27 40.4216 27 41.25C27 42.0784 27.6716 42.75 28.5 42.75H33C33.8284 42.75 34.5 42.0784 34.5 41.25C34.5 40.4216 33.8284 39.75 33 39.75H28.5Z" fill="white"/>
<defs>
<linearGradient id="paint0_linear_2630_99893" x1="25.0463" y1="33.4264" x2="47.2436" y2="58.9453" gradientUnits="userSpaceOnUse">
<stop stop-color="#CD6F00" stop-opacity="0.8"/>
<stop offset="1" stop-color="#CD6F00" stop-opacity="0.2"/>
</linearGradient>
<clipPath id="clip0_2630_99893">
<rect x="7" y="7" width="58" height="58" rx="29" fill="white"/>
</clipPath>
</defs>
</svg>
