<svg width="24" height="24" viewBox="0 0 24 24" fill="none" xmlns="http://www.w3.org/2000/svg">
<path fill-rule="evenodd" clip-rule="evenodd" d="M5.5 8C6.32843 8 7 7.32843 7 6.5C7 5.67157 6.32843 5 5.5 5C4.67157 5 4 5.67157 4 6.5C4 7.32843 4.67157 8 5.5 8ZM5.5 10C7.433 10 9 8.433 9 6.5C9 4.567 7.433 3 5.5 3C3.567 3 2 4.567 2 6.5C2 8.433 3.567 10 5.5 10Z" fill="#3D3F40"/>
<path fill-rule="evenodd" clip-rule="evenodd" d="M18.5 18C17.6716 18 17 17.3284 17 16.5C17 15.6716 17.6716 15 18.5 15C19.3284 15 20 15.6716 20 16.5C20 17.3284 19.3284 18 18.5 18ZM18.5 20C16.567 20 15 18.433 15 16.5C15 14.567 16.567 13 18.5 13C20.433 13 22 14.567 22 16.5C22 18.433 20.433 20 18.5 20Z" fill="#3D3F40"/>
<path d="M12 6C12 5.44772 12.4477 5 13 5H21C21.5523 5 22 5.44772 22 6C22 6.55228 21.5523 7 21 7H13C12.4477 7 12 6.55228 12 6Z" fill="#3D3F40"/>
<path d="M12 16C12 15.4477 11.5523 15 11 15H3C2.44772 15 2 15.4477 2 16C2 16.5523 2.44772 17 3 17H11C11.5523 17 12 16.5523 12 16Z" fill="#3D3F40"/>
</svg>
