<svg width="24" height="24" viewBox="0 0 24 24" fill="none" xmlns="http://www.w3.org/2000/svg">
<path fill-rule="evenodd" clip-rule="evenodd" d="M18.9462 7L20.125 7.00009C21.2982 7.00009 22 7.95186 22 9.12509V11.0001C22 11.5524 21.5523 12.0001 21 12.0001H13V9.00012L11 9.00009V12.0001H3C2.44772 12.0001 2 11.5524 2 11.0001V9.12509C2 7.95186 2.82677 7.00009 4 7.00009H5.21375C4.96021 6.51903 4.8125 5.96729 4.8125 5.37509C4.8125 3.5315 6.21258 2.00009 7.97266 2.00009C8.86248 2.00009 9.57417 2.27229 10.2732 2.90452C10.7136 3.30289 11.025 3.84448 11.4286 4.54662C11.5975 4.84041 11.7826 5.16233 12 5.51362L12.0254 5.47266C12.7492 4.30319 13.2692 3.463 13.8868 2.90443C14.5858 2.27221 15.2975 2 16.1873 2C17.9474 2 19.3474 3.53141 19.3474 5.375C19.3474 5.96721 19.1997 6.51895 18.9462 7ZM15 4.26488C14.5348 4.71114 14.0332 5.52389 13.1457 7.00009L16 7.00013C17 7.00013 17.5974 6.30129 17.5974 5.375C17.5974 4.44871 16.9358 3.75 16.1873 3.75C15.9768 3.75 15.7995 3.77058 15.62 3.83969C15.4399 3.90904 15.2409 4.03374 15 4.26488ZM8.54165 3.8398C8.36199 3.7707 8.18423 3.75009 7.97266 3.75009C7.22436 3.75009 6.56233 4.44863 6.55859 5.37553C6.5588 6.3016 7 7.00009 7.96875 7.00009H10.8543C10.5461 6.48744 10.3039 6.05482 10.0995 5.68978C9.7152 5.00358 9.46466 4.55618 9.16131 4.26488C8.92065 4.03379 8.72188 3.90913 8.54165 3.8398Z" fill="#DA2128"/>
<path d="M3 14.0001V19.6251C3 21.0001 4 22.0001 5.375 22.0001H18.875C20 22.0001 21 21.0001 21 19.6251V14.0001H13V22.0001H11V14.0001H3Z" fill="#DA2128"/>
</svg>
