<svg width="24" height="24" viewBox="0 0 24 24" fill="none" xmlns="http://www.w3.org/2000/svg">
<path fill-rule="evenodd" clip-rule="evenodd" d="M9.19833 1.308C10.8272 0.00931223 13.1414 0.00931223 14.7702 1.308L21.6331 6.81333C22.5326 7.50941 23.0671 8.57663 23.0826 9.71448L23.0827 18.8906C23.0827 21.5333 20.9327 23.6673 18.2908 23.6673H16.2823C14.9597 23.6519 13.8602 22.5445 13.8604 21.2206V17.9906C13.8604 17.8166 13.7174 17.6672 13.5308 17.6672H10.5234C10.3389 17.6697 10.1985 17.8181 10.1985 17.9905V21.2106C10.1985 22.5419 9.03583 23.6673 7.71635 23.6673H5.70791C3.06603 23.6673 0.916016 21.5333 0.916016 18.8906V9.72892C0.927215 8.58865 1.46261 7.51831 2.36559 6.82326L9.19833 1.308ZM7.86521 17.9906C7.8652 16.5409 9.07329 15.3433 10.5181 15.3338L13.5308 15.3339C14.9969 15.3339 16.1937 16.5187 16.1937 17.9906V21.2206C16.1937 21.2759 16.2377 21.3292 16.303 21.334H18.2908C19.6532 21.334 20.7494 20.2354 20.7494 18.8906V9.73949C20.7415 9.31562 20.5408 8.91651 20.2011 8.65552L13.3156 3.13243C12.5399 2.51332 11.4331 2.51228 10.6554 3.1305L3.81968 8.64816C3.47842 8.92364 3.25533 9.29921 3.24935 9.74698V18.8906C3.24935 20.2354 4.34547 21.334 5.70791 21.334H7.71635C7.79209 21.334 7.84513 21.2742 7.84513 21.2106C7.84513 20.1398 7.86521 19.0634 7.86521 17.9906Z" fill="#899296"/>
</svg>
