<svg width="20" height="20" viewBox="0 0 20 20" fill="none" xmlns="http://www.w3.org/2000/svg">
<path fill-rule="evenodd" clip-rule="evenodd" d="M7.3758 12.6775L11.2221 18.9187C11.6933 19.6807 12.5703 20.0912 13.4536 19.9785L13.455 19.9783C14.3541 19.8582 15.0749 19.2396 15.3317 18.3682L19.9047 2.92451C20.1395 2.13327 19.9197 1.24934 19.3344 0.665412C18.7463 0.0795375 17.8899 -0.142192 17.0907 0.0916014L1.63459 4.61763C0.766175 4.87232 0.145714 5.59085 0.0222821 6.49143C-0.102153 7.392 0.301084 8.25232 1.06939 8.73349L7.3758 12.6775ZM13.1222 5.46968L7.96093 10.6855L2.12988 7.0388C1.9289 6.91212 1.97593 6.6015 2.19735 6.53641L17.652 2.01082C17.7484 1.98383 17.8476 2.00877 17.9182 2.0793C17.9573 2.11843 18.0301 2.21347 17.988 2.35722L13.4153 17.8014C13.3472 18.0291 13.0458 18.066 12.9248 17.8693L9.37091 12.1037L14.5446 6.87639C14.9326 6.4844 14.9302 5.84988 14.5365 5.46155C14.1434 5.07374 13.5103 5.07763 13.1222 5.46968Z" fill="white"/>
</svg>
