<svg width="81" height="80" viewBox="0 0 81 80" fill="none" xmlns="http://www.w3.org/2000/svg">
<circle cx="40.5" cy="40" r="39" stroke="#4FBF72" stroke-width="2"/>
<path d="M53.358 27.8409L53.3584 27.8404C54.4775 26.72 56.48 26.7197 57.6003 27.8407L57.6005 27.8409C58.1683 28.4087 58.479 29.1587 58.479 29.9619C58.479 30.765 58.1684 31.515 57.6003 32.0827L57.6 32.0829L37.9911 51.6918L37.9907 51.6923C37.4236 52.2601 36.6739 52.5708 35.8701 52.5708C35.0664 52.5708 34.3165 52.2601 33.7488 51.692L33.7486 51.6918L24.379 42.3217L24.3788 42.3215C23.8106 41.7537 23.5 41.0038 23.5 40.2007C23.5 39.3976 23.8106 38.6476 24.3788 38.0799L24.3794 38.0792C25.4984 36.9587 27.501 36.9584 28.6213 38.0794L28.6215 38.0797L35.163 44.6212L35.8701 45.3283L36.5772 44.6212L53.358 27.8409Z" fill="#B9E6C7" stroke="#4FBF72" stroke-width="2"/>
</svg>
