<svg width="24" height="24" viewBox="0 0 24 24" fill="none" xmlns="http://www.w3.org/2000/svg">
<path d="M6.16732 7.21731C5.46732 7.21731 5.00065 6.63398 5.00065 6.05064C5.00065 5.46731 5.46732 4.88398 6.16732 4.88398H10.834C11.534 4.88398 12.0007 5.35064 12.0007 6.05064C12.0007 6.75064 11.534 7.21731 10.834 7.21731H6.16732Z" fill="#899296"/>
<path d="M7.33398 11.7673H6.16732C5.46732 11.7673 5.00065 11.3006 5.00065 10.6006C5.00065 9.90064 5.46732 9.43397 6.16732 9.43397H7.33398C8.03399 9.43397 8.50065 9.90064 8.50065 10.6006C8.50065 11.3006 8.03399 11.7673 7.33398 11.7673Z" fill="#899296"/>
<path d="M9.66732 14.1006H6.16732C5.46732 14.1006 5.00065 14.5673 5.00065 15.2673C5.00065 15.9673 5.46732 16.434 6.16732 16.434H9.66732C10.3673 16.434 10.834 15.9673 10.834 15.2673C10.834 14.5673 10.3673 14.1006 9.66732 14.1006Z" fill="#899296"/>
<path fill-rule="evenodd" clip-rule="evenodd" d="M6.05065 0.333984H19.0007C21.5673 0.333984 23.6673 2.43398 23.6673 4.88398V7.91732C23.6673 8.03399 23.6382 8.15065 23.609 8.26732C23.5798 8.38398 23.5507 8.50065 23.5507 8.61732C23.434 8.85065 23.2007 9.08399 22.9673 9.20065C22.8735 9.23191 22.7881 9.26317 22.7089 9.29219C22.4923 9.37146 22.3215 9.43398 22.1507 9.43398H16.6673V23.6673L12.0007 22.1507L8.50065 23.3173L5.00065 22.1507L0.333984 23.6673V5.93398C0.333984 5.00065 0.333984 4.06732 0.450651 3.36732C0.567318 2.66732 0.800651 1.96732 1.38398 1.38398C1.96732 0.800651 2.66732 0.567318 3.48398 0.450651C4.18398 0.333984 5.00065 0.333984 6.05065 0.333984ZM14.334 20.5173V4.88398C14.334 4.06732 14.5673 3.25065 14.9173 2.66732H3.71732C3.25065 2.78398 3.13398 2.90065 3.01732 3.01732C3.01732 3.01732 2.90065 3.25065 2.78398 3.71732C2.66732 4.18398 2.66732 4.88398 2.66732 6.05065V20.5173L5.00065 19.7007L8.50065 20.8673L12.0007 19.7007L14.334 20.5173ZM19.0007 2.55065C17.7173 2.55065 16.6673 3.60065 16.6673 4.88398V7.21732H21.334V4.88398C21.334 3.60065 20.284 2.55065 19.0007 2.55065Z" fill="#899296"/>
</svg>
