<svg width="24" height="24" viewBox="0 0 24 24" fill="none" xmlns="http://www.w3.org/2000/svg">
<path fill-rule="evenodd" clip-rule="evenodd" d="M18 2H6.9C6 2 5.3 2 4.7 2.1C4 2.2 3.4 2.4 2.9 2.9C2.4 3.4 2.2 4 2.1 4.6C2 5.2 2 6 2 6.8V22L6 20.7L9 21.7L12 20.7L16 22V9.8H20.2C20.3 9.8 20.5 9.8 20.7 9.8C20.9 9.8 21.1 9.7 21.4 9.6C21.6 9.5 21.8 9.3 21.9 9.1C21.9 8.9 22 8.7 22 8.5C22 8.4 22 8.2 22 8V5.9C22 3.8 20.2 2 18 2ZM10 15.7H7C6.4 15.7 6 15.3 6 14.7C6 14.2 6.4 13.7 7 13.7H10C10.6 13.7 11 14.1 11 14.7C11 15.3 10.6 15.7 10 15.7ZM6 10.8C6 10.3 6.4 9.8 7 9.8H8C8.6 9.8 9 10.2 9 10.8C9 11.3 8.6 11.8 8 11.8H7C6.4 11.8 6 11.4 6 10.8ZM11 7.9H7C6.4 7.9 6 7.5 6 6.9C6 6.3 6.4 5.9 7 5.9H11C11.6 5.9 12 6.3 12 6.9C12 7.5 11.6 7.9 11 7.9ZM20 7.9H16V5.9C16 4.8 16.9 3.9 18 3.9C19.1 3.9 20 4.8 20 5.9V7.9Z" fill="#DA2128"/>
</svg>
